G04 Layer_Physical_Order=2*
G04 Layer_Color=16711680*
%FSLAX24Y24*%
%MOIN*%
G70*
G01*
G75*
%ADD11R,0.0591X0.0591*%
%ADD12C,0.0591*%
%ADD13C,0.0236*%
G36*
X43307Y12992D02*
X26378D01*
Y31890D01*
X43307D01*
Y12992D01*
D02*
G37*
%LPC*%
G36*
X29191Y19542D02*
X28846D01*
Y19196D01*
X29191D01*
Y19542D01*
D02*
G37*
G36*
X28746D02*
X28400D01*
Y19196D01*
X28746D01*
Y19542D01*
D02*
G37*
G36*
X42499Y19905D02*
Y19563D01*
X42841D01*
X42834Y19616D01*
X42794Y19712D01*
X42731Y19795D01*
X42649Y19858D01*
X42552Y19898D01*
X42499Y19905D01*
D02*
G37*
G36*
X42399Y19905D02*
X42346Y19898D01*
X42250Y19858D01*
X42167Y19795D01*
X42104Y19712D01*
X42064Y19616D01*
X42057Y19563D01*
X42399D01*
Y19905D01*
D02*
G37*
G36*
X42841Y19463D02*
X42499D01*
Y19121D01*
X42552Y19128D01*
X42649Y19168D01*
X42731Y19231D01*
X42794Y19314D01*
X42834Y19410D01*
X42841Y19463D01*
D02*
G37*
G36*
X42499Y18905D02*
Y18563D01*
X42841D01*
X42834Y18616D01*
X42794Y18712D01*
X42731Y18795D01*
X42649Y18858D01*
X42552Y18898D01*
X42499Y18905D01*
D02*
G37*
G36*
X37499D02*
Y18563D01*
X37841D01*
X37834Y18616D01*
X37794Y18712D01*
X37731Y18795D01*
X37649Y18858D01*
X37552Y18898D01*
X37499Y18905D01*
D02*
G37*
G36*
X42399Y19463D02*
X42057D01*
X42064Y19410D01*
X42104Y19314D01*
X42167Y19231D01*
X42250Y19168D01*
X42346Y19128D01*
X42399Y19121D01*
Y19463D01*
D02*
G37*
G36*
X37449Y19970D02*
X37331Y19954D01*
X37221Y19908D01*
X37126Y19836D01*
X37054Y19741D01*
X37008Y19631D01*
X36993Y19513D01*
X37008Y19395D01*
X37054Y19285D01*
X37126Y19190D01*
X37221Y19118D01*
X37331Y19072D01*
X37449Y19056D01*
X37567Y19072D01*
X37678Y19118D01*
X37772Y19190D01*
X37845Y19285D01*
X37890Y19395D01*
X37906Y19513D01*
X37890Y19631D01*
X37845Y19741D01*
X37772Y19836D01*
X37678Y19908D01*
X37567Y19954D01*
X37449Y19970D01*
D02*
G37*
G36*
X42841Y21463D02*
X42499D01*
Y21121D01*
X42552Y21128D01*
X42649Y21168D01*
X42731Y21231D01*
X42794Y21314D01*
X42834Y21410D01*
X42841Y21463D01*
D02*
G37*
G36*
X42399D02*
X42057D01*
X42064Y21410D01*
X42104Y21314D01*
X42167Y21231D01*
X42250Y21168D01*
X42346Y21128D01*
X42399Y21121D01*
Y21463D01*
D02*
G37*
G36*
X42499Y21905D02*
Y21563D01*
X42841D01*
X42834Y21616D01*
X42794Y21712D01*
X42731Y21795D01*
X42649Y21858D01*
X42552Y21898D01*
X42499Y21905D01*
D02*
G37*
G36*
X42399Y21905D02*
X42346Y21898D01*
X42250Y21858D01*
X42167Y21795D01*
X42104Y21712D01*
X42064Y21616D01*
X42057Y21563D01*
X42399D01*
Y21905D01*
D02*
G37*
G36*
X41449Y20970D02*
X41331Y20954D01*
X41221Y20909D01*
X41126Y20836D01*
X41092Y20791D01*
X37807D01*
X37772Y20836D01*
X37678Y20909D01*
X37567Y20954D01*
X37449Y20970D01*
X37331Y20954D01*
X37221Y20909D01*
X37126Y20836D01*
X37054Y20741D01*
X37008Y20631D01*
X36993Y20513D01*
X37008Y20395D01*
X37054Y20285D01*
X37126Y20190D01*
X37221Y20118D01*
X37331Y20072D01*
X37449Y20056D01*
X37567Y20072D01*
X37678Y20118D01*
X37772Y20190D01*
X37807Y20235D01*
X41092D01*
X41126Y20190D01*
X41221Y20118D01*
X41331Y20072D01*
X41449Y20056D01*
X41567Y20072D01*
X41678Y20118D01*
X41772Y20190D01*
X41845Y20285D01*
X41890Y20395D01*
X41906Y20513D01*
X41890Y20631D01*
X41845Y20741D01*
X41772Y20836D01*
X41678Y20909D01*
X41567Y20954D01*
X41449Y20970D01*
D02*
G37*
G36*
X42841Y20463D02*
X42499D01*
Y20121D01*
X42552Y20128D01*
X42649Y20168D01*
X42731Y20231D01*
X42794Y20314D01*
X42834Y20410D01*
X42841Y20463D01*
D02*
G37*
G36*
X42399D02*
X42057D01*
X42064Y20410D01*
X42104Y20314D01*
X42167Y20231D01*
X42250Y20168D01*
X42346Y20128D01*
X42399Y20121D01*
Y20463D01*
D02*
G37*
G36*
X42499Y20905D02*
Y20563D01*
X42841D01*
X42834Y20616D01*
X42794Y20712D01*
X42731Y20795D01*
X42649Y20858D01*
X42552Y20898D01*
X42499Y20905D01*
D02*
G37*
G36*
X42399Y20905D02*
X42346Y20898D01*
X42250Y20858D01*
X42167Y20795D01*
X42104Y20712D01*
X42064Y20616D01*
X42057Y20563D01*
X42399D01*
Y20905D01*
D02*
G37*
G36*
Y18905D02*
X42346Y18898D01*
X42250Y18858D01*
X42167Y18795D01*
X42104Y18712D01*
X42064Y18616D01*
X42057Y18563D01*
X42399D01*
Y18905D01*
D02*
G37*
G36*
X42399Y16905D02*
X42346Y16898D01*
X42250Y16858D01*
X42167Y16795D01*
X42104Y16712D01*
X42064Y16616D01*
X42057Y16563D01*
X42399D01*
Y16905D01*
D02*
G37*
G36*
X42841Y16463D02*
X42499D01*
Y16121D01*
X42552Y16128D01*
X42649Y16168D01*
X42731Y16231D01*
X42794Y16314D01*
X42834Y16410D01*
X42841Y16463D01*
D02*
G37*
G36*
X37449Y17970D02*
X37331Y17954D01*
X37221Y17909D01*
X37126Y17836D01*
X37054Y17741D01*
X37008Y17631D01*
X36993Y17513D01*
X37008Y17395D01*
X37054Y17285D01*
X37126Y17190D01*
X37221Y17118D01*
X37331Y17072D01*
X37449Y17056D01*
X37567Y17072D01*
X37678Y17118D01*
X37772Y17190D01*
X37845Y17285D01*
X37890Y17395D01*
X37906Y17513D01*
X37890Y17631D01*
X37845Y17741D01*
X37772Y17836D01*
X37678Y17909D01*
X37567Y17954D01*
X37449Y17970D01*
D02*
G37*
G36*
X42499Y16905D02*
Y16563D01*
X42841D01*
X42834Y16616D01*
X42794Y16712D01*
X42731Y16795D01*
X42649Y16858D01*
X42552Y16898D01*
X42499Y16905D01*
D02*
G37*
G36*
X42399Y16463D02*
X42057D01*
X42064Y16410D01*
X42104Y16314D01*
X42167Y16231D01*
X42250Y16168D01*
X42346Y16128D01*
X42399Y16121D01*
Y16463D01*
D02*
G37*
G36*
X42841Y15463D02*
X42499D01*
Y15121D01*
X42552Y15128D01*
X42649Y15168D01*
X42731Y15231D01*
X42794Y15314D01*
X42834Y15410D01*
X42841Y15463D01*
D02*
G37*
G36*
X42399D02*
X42057D01*
X42064Y15410D01*
X42104Y15314D01*
X42167Y15231D01*
X42250Y15168D01*
X42346Y15128D01*
X42399Y15121D01*
Y15463D01*
D02*
G37*
G36*
X42499Y15905D02*
Y15563D01*
X42841D01*
X42834Y15616D01*
X42794Y15712D01*
X42731Y15795D01*
X42649Y15858D01*
X42552Y15898D01*
X42499Y15905D01*
D02*
G37*
G36*
X42399Y15905D02*
X42346Y15898D01*
X42250Y15858D01*
X42167Y15795D01*
X42104Y15712D01*
X42064Y15616D01*
X42057Y15563D01*
X42399D01*
Y15905D01*
D02*
G37*
G36*
X37841Y18463D02*
X37499D01*
Y18121D01*
X37552Y18128D01*
X37649Y18168D01*
X37731Y18231D01*
X37794Y18314D01*
X37834Y18410D01*
X37841Y18463D01*
D02*
G37*
G36*
X42399D02*
X42057D01*
X42064Y18410D01*
X42104Y18314D01*
X42167Y18231D01*
X42250Y18168D01*
X42346Y18128D01*
X42399Y18121D01*
Y18463D01*
D02*
G37*
G36*
X37399Y18905D02*
X37346Y18898D01*
X37250Y18858D01*
X37167Y18795D01*
X37104Y18712D01*
X37064Y18616D01*
X37057Y18563D01*
X37399D01*
Y18905D01*
D02*
G37*
G36*
X42841Y18463D02*
X42499D01*
Y18121D01*
X42552Y18128D01*
X42649Y18168D01*
X42731Y18231D01*
X42794Y18314D01*
X42834Y18410D01*
X42841Y18463D01*
D02*
G37*
G36*
X37399D02*
X37057D01*
X37064Y18410D01*
X37104Y18314D01*
X37167Y18231D01*
X37250Y18168D01*
X37346Y18128D01*
X37399Y18121D01*
Y18463D01*
D02*
G37*
G36*
X42841Y17463D02*
X42499D01*
Y17121D01*
X42552Y17128D01*
X42649Y17168D01*
X42731Y17231D01*
X42794Y17314D01*
X42834Y17410D01*
X42841Y17463D01*
D02*
G37*
G36*
X42399D02*
X42057D01*
X42064Y17410D01*
X42104Y17314D01*
X42167Y17231D01*
X42250Y17168D01*
X42346Y17128D01*
X42399Y17121D01*
Y17463D01*
D02*
G37*
G36*
X42499Y17905D02*
Y17563D01*
X42841D01*
X42834Y17616D01*
X42794Y17712D01*
X42731Y17795D01*
X42649Y17858D01*
X42552Y17898D01*
X42499Y17905D01*
D02*
G37*
G36*
X42399Y17905D02*
X42346Y17898D01*
X42250Y17858D01*
X42167Y17795D01*
X42104Y17712D01*
X42064Y17616D01*
X42057Y17563D01*
X42399D01*
Y17905D01*
D02*
G37*
G36*
X41449Y21970D02*
X41331Y21954D01*
X41221Y21909D01*
X41126Y21836D01*
X41092Y21791D01*
X37807D01*
X37772Y21836D01*
X37678Y21909D01*
X37567Y21954D01*
X37449Y21970D01*
X37331Y21954D01*
X37221Y21909D01*
X37126Y21836D01*
X37054Y21741D01*
X37008Y21631D01*
X36993Y21513D01*
X37008Y21395D01*
X37054Y21285D01*
X37126Y21190D01*
X37221Y21118D01*
X37331Y21072D01*
X37449Y21056D01*
X37567Y21072D01*
X37678Y21118D01*
X37772Y21190D01*
X37807Y21235D01*
X41092D01*
X41126Y21190D01*
X41221Y21118D01*
X41331Y21072D01*
X41449Y21056D01*
X41567Y21072D01*
X41678Y21118D01*
X41772Y21190D01*
X41845Y21285D01*
X41890Y21395D01*
X41906Y21513D01*
X41890Y21631D01*
X41845Y21741D01*
X41772Y21836D01*
X41678Y21909D01*
X41567Y21954D01*
X41449Y21970D01*
D02*
G37*
G36*
X42399Y25905D02*
X42346Y25898D01*
X42250Y25858D01*
X42167Y25795D01*
X42104Y25712D01*
X42064Y25616D01*
X42057Y25563D01*
X42399D01*
Y25905D01*
D02*
G37*
G36*
X42841Y25463D02*
X42499D01*
Y25121D01*
X42552Y25128D01*
X42649Y25168D01*
X42731Y25231D01*
X42794Y25314D01*
X42834Y25410D01*
X42841Y25463D01*
D02*
G37*
G36*
X42399Y26463D02*
X42057D01*
X42064Y26410D01*
X42104Y26314D01*
X42167Y26231D01*
X42250Y26168D01*
X42346Y26128D01*
X42399Y26121D01*
Y26463D01*
D02*
G37*
G36*
X42499Y25905D02*
Y25563D01*
X42841D01*
X42834Y25616D01*
X42794Y25712D01*
X42731Y25795D01*
X42649Y25858D01*
X42552Y25898D01*
X42499Y25905D01*
D02*
G37*
G36*
Y24905D02*
Y24563D01*
X42841D01*
X42834Y24616D01*
X42794Y24712D01*
X42731Y24795D01*
X42649Y24858D01*
X42552Y24898D01*
X42499Y24905D01*
D02*
G37*
G36*
X42399Y24905D02*
X42346Y24898D01*
X42250Y24858D01*
X42167Y24795D01*
X42104Y24712D01*
X42064Y24616D01*
X42057Y24563D01*
X42399D01*
Y24905D01*
D02*
G37*
G36*
Y25463D02*
X42057D01*
X42064Y25410D01*
X42104Y25314D01*
X42167Y25231D01*
X42250Y25168D01*
X42346Y25128D01*
X42399Y25121D01*
Y25463D01*
D02*
G37*
G36*
X37449Y25970D02*
X37331Y25954D01*
X37221Y25909D01*
X37126Y25836D01*
X37054Y25741D01*
X37008Y25631D01*
X36993Y25513D01*
X37008Y25395D01*
X37054Y25285D01*
X37126Y25190D01*
X37221Y25118D01*
X37331Y25072D01*
X37449Y25056D01*
X37567Y25072D01*
X37678Y25118D01*
X37772Y25190D01*
X37845Y25285D01*
X37890Y25395D01*
X37906Y25513D01*
X37890Y25631D01*
X37845Y25741D01*
X37772Y25836D01*
X37678Y25909D01*
X37567Y25954D01*
X37449Y25970D01*
D02*
G37*
G36*
X42399Y27908D02*
X42054D01*
Y27563D01*
X42399D01*
Y27908D01*
D02*
G37*
G36*
X42844Y27463D02*
X42499D01*
Y27118D01*
X42844D01*
Y27463D01*
D02*
G37*
G36*
X38185Y31149D02*
X36714D01*
X36642Y31140D01*
X36575Y31112D01*
X36517Y31068D01*
X35240Y29791D01*
X31902D01*
Y29966D01*
X30996D01*
Y29060D01*
X31902D01*
Y29235D01*
X35176D01*
X35195Y29189D01*
X34797Y28791D01*
X31807D01*
X31772Y28836D01*
X31678Y28909D01*
X31567Y28954D01*
X31449Y28970D01*
X31331Y28954D01*
X31221Y28909D01*
X31126Y28836D01*
X31092Y28791D01*
X29832D01*
X29245Y29378D01*
X29252Y29434D01*
X29237Y29552D01*
X29191Y29663D01*
X29119Y29757D01*
X29024Y29830D01*
X28914Y29875D01*
X28796Y29891D01*
X28677Y29875D01*
X28567Y29830D01*
X28473Y29757D01*
X28400Y29663D01*
X28355Y29552D01*
X28339Y29434D01*
X28355Y29316D01*
X28400Y29206D01*
X28473Y29111D01*
X28567Y29039D01*
X28677Y28993D01*
X28796Y28978D01*
X28852Y28985D01*
X28911Y28926D01*
X28887Y28879D01*
X28796Y28891D01*
X28677Y28875D01*
X28567Y28830D01*
X28473Y28757D01*
X28400Y28663D01*
X28355Y28552D01*
X28339Y28434D01*
X28346Y28378D01*
X27635Y27666D01*
X27590Y27609D01*
X27563Y27542D01*
X27553Y27470D01*
Y24793D01*
X26631Y23870D01*
X26586Y23813D01*
X26559Y23746D01*
X26549Y23674D01*
Y18478D01*
X26559Y18406D01*
X26586Y18339D01*
X26631Y18282D01*
X27092Y17820D01*
X27149Y17776D01*
X27216Y17748D01*
X27288Y17739D01*
X27710D01*
Y15281D01*
X27720Y15209D01*
X27748Y15142D01*
X27792Y15084D01*
X28205Y14671D01*
X28263Y14627D01*
X28330Y14599D01*
X28402Y14589D01*
X34980D01*
X35611Y13958D01*
X35668Y13914D01*
X35735Y13886D01*
X35807Y13877D01*
X38012D01*
X38084Y13886D01*
X38151Y13914D01*
X38208Y13958D01*
X39485Y15235D01*
X41092D01*
X41126Y15190D01*
X41221Y15118D01*
X41331Y15072D01*
X41449Y15056D01*
X41567Y15072D01*
X41678Y15118D01*
X41772Y15190D01*
X41845Y15285D01*
X41890Y15395D01*
X41906Y15513D01*
X41890Y15631D01*
X41845Y15741D01*
X41772Y15836D01*
X41678Y15908D01*
X41567Y15954D01*
X41449Y15970D01*
X41331Y15954D01*
X41221Y15908D01*
X41126Y15836D01*
X41092Y15791D01*
X39550D01*
X39531Y15837D01*
X39946Y16253D01*
X41078D01*
X41126Y16190D01*
X41221Y16118D01*
X41331Y16072D01*
X41449Y16056D01*
X41567Y16072D01*
X41678Y16118D01*
X41772Y16190D01*
X41845Y16285D01*
X41890Y16395D01*
X41906Y16513D01*
X41890Y16631D01*
X41845Y16741D01*
X41772Y16836D01*
X41678Y16909D01*
X41567Y16954D01*
X41449Y16970D01*
X41331Y16954D01*
X41221Y16909D01*
X41126Y16836D01*
X41106Y16809D01*
X40011D01*
X39992Y16855D01*
X40372Y17235D01*
X41092D01*
X41126Y17190D01*
X41221Y17118D01*
X41331Y17072D01*
X41449Y17056D01*
X41567Y17072D01*
X41678Y17118D01*
X41772Y17190D01*
X41845Y17285D01*
X41890Y17395D01*
X41906Y17513D01*
X41890Y17631D01*
X41845Y17741D01*
X41772Y17836D01*
X41678Y17909D01*
X41567Y17954D01*
X41449Y17970D01*
X41331Y17954D01*
X41221Y17909D01*
X41126Y17836D01*
X41092Y17791D01*
X40257D01*
X40185Y17782D01*
X40179Y17779D01*
X40151Y17822D01*
X40564Y18235D01*
X41092D01*
X41126Y18190D01*
X41221Y18118D01*
X41331Y18072D01*
X41449Y18056D01*
X41567Y18072D01*
X41678Y18118D01*
X41772Y18190D01*
X41845Y18285D01*
X41890Y18395D01*
X41906Y18513D01*
X41890Y18631D01*
X41845Y18741D01*
X41772Y18836D01*
X41678Y18908D01*
X41567Y18954D01*
X41449Y18970D01*
X41331Y18954D01*
X41221Y18908D01*
X41126Y18836D01*
X41092Y18791D01*
X40579D01*
X40560Y18837D01*
X40957Y19235D01*
X41092D01*
X41126Y19190D01*
X41221Y19118D01*
X41331Y19072D01*
X41449Y19056D01*
X41567Y19072D01*
X41678Y19118D01*
X41772Y19190D01*
X41845Y19285D01*
X41890Y19395D01*
X41906Y19513D01*
X41890Y19631D01*
X41845Y19741D01*
X41772Y19836D01*
X41678Y19908D01*
X41567Y19954D01*
X41449Y19970D01*
X41331Y19954D01*
X41221Y19908D01*
X41126Y19836D01*
X41092Y19791D01*
X40842D01*
X40770Y19782D01*
X40703Y19754D01*
X40646Y19710D01*
X37772Y16836D01*
X37678Y16909D01*
X37567Y16954D01*
X37449Y16970D01*
X37331Y16954D01*
X37221Y16909D01*
X37126Y16836D01*
X37054Y16741D01*
X37008Y16631D01*
X36993Y16513D01*
X37008Y16395D01*
X37054Y16285D01*
X37126Y16190D01*
X37221Y16118D01*
X37331Y16072D01*
X37449Y16056D01*
X37541Y16068D01*
X37564Y16021D01*
X37505Y15962D01*
X37449Y15970D01*
X37331Y15954D01*
X37221Y15908D01*
X37126Y15836D01*
X37054Y15741D01*
X37008Y15631D01*
X36993Y15513D01*
X37005Y15421D01*
X36957Y15398D01*
X31898Y20457D01*
X31906Y20513D01*
X31890Y20631D01*
X31845Y20741D01*
X31772Y20836D01*
X31678Y20909D01*
X31567Y20954D01*
X31449Y20970D01*
X31331Y20954D01*
X31221Y20909D01*
X31126Y20836D01*
X31054Y20741D01*
X31008Y20631D01*
X30993Y20513D01*
X31008Y20395D01*
X31054Y20285D01*
X31126Y20190D01*
X31221Y20118D01*
X31331Y20072D01*
X31449Y20056D01*
X31505Y20064D01*
X31564Y20005D01*
X31541Y19958D01*
X31449Y19970D01*
X31331Y19954D01*
X31221Y19908D01*
X31126Y19836D01*
X31054Y19741D01*
X31008Y19631D01*
X30993Y19513D01*
X31005Y19421D01*
X30957Y19398D01*
X29780Y20576D01*
X29722Y20620D01*
X29655Y20648D01*
X29583Y20657D01*
X29153D01*
X29119Y20702D01*
X29059Y20748D01*
Y20798D01*
X29119Y20844D01*
X29191Y20938D01*
X29237Y21048D01*
X29252Y21167D01*
X29237Y21285D01*
X29191Y21395D01*
X29119Y21489D01*
X29059Y21535D01*
Y21585D01*
X29119Y21631D01*
X29153Y21676D01*
X30893D01*
X31000Y21569D01*
X30993Y21513D01*
X31008Y21395D01*
X31054Y21285D01*
X31126Y21190D01*
X31221Y21118D01*
X31331Y21072D01*
X31449Y21056D01*
X31567Y21072D01*
X31678Y21118D01*
X31772Y21190D01*
X31845Y21285D01*
X31890Y21395D01*
X31906Y21513D01*
X31890Y21631D01*
X31845Y21741D01*
X31772Y21836D01*
X31678Y21909D01*
X31567Y21954D01*
X31449Y21970D01*
X31393Y21962D01*
X31334Y22021D01*
X31358Y22068D01*
X31449Y22056D01*
X31567Y22072D01*
X31678Y22118D01*
X31772Y22190D01*
X31845Y22285D01*
X31890Y22395D01*
X31906Y22513D01*
X31890Y22631D01*
X31845Y22741D01*
X31772Y22836D01*
X31678Y22908D01*
X31567Y22954D01*
X31449Y22970D01*
X31331Y22954D01*
X31221Y22908D01*
X31126Y22836D01*
X31054Y22741D01*
X31008Y22631D01*
X30993Y22513D01*
X31008Y22395D01*
X31054Y22285D01*
X31061Y22275D01*
X31034Y22229D01*
X31008Y22232D01*
X29153D01*
X29119Y22277D01*
X29024Y22349D01*
X28914Y22395D01*
X28796Y22411D01*
X28677Y22395D01*
X28567Y22349D01*
X28473Y22277D01*
X28400Y22182D01*
X28355Y22072D01*
X28339Y21954D01*
X28355Y21836D01*
X28400Y21726D01*
X28473Y21631D01*
X28532Y21585D01*
Y21535D01*
X28473Y21489D01*
X28400Y21395D01*
X28355Y21285D01*
X28339Y21167D01*
X28355Y21048D01*
X28400Y20938D01*
X28473Y20844D01*
X28532Y20798D01*
Y20748D01*
X28473Y20702D01*
X28400Y20607D01*
X28355Y20497D01*
X28339Y20379D01*
X28355Y20261D01*
X28400Y20151D01*
X28473Y20056D01*
X28501Y20034D01*
X28485Y19987D01*
X28400D01*
Y19642D01*
X28796D01*
X29191D01*
Y19987D01*
X29106D01*
X29090Y20034D01*
X29119Y20056D01*
X29153Y20101D01*
X29468D01*
X30441Y19129D01*
X30421Y19082D01*
X27892D01*
Y23233D01*
X28354Y23694D01*
X28400Y23675D01*
Y23579D01*
X28746D01*
Y23924D01*
X28649D01*
X28630Y23970D01*
X28739Y24079D01*
X28796Y24072D01*
X28914Y24088D01*
X29024Y24133D01*
X29119Y24206D01*
X29191Y24300D01*
X29237Y24411D01*
X29252Y24529D01*
X29237Y24647D01*
X29191Y24757D01*
X29119Y24852D01*
X29024Y24924D01*
X28914Y24970D01*
X28796Y24985D01*
X28677Y24970D01*
X28567Y24924D01*
X28548Y24909D01*
X28503Y24931D01*
Y25126D01*
X28548Y25148D01*
X28567Y25133D01*
X28677Y25088D01*
X28796Y25072D01*
X28914Y25088D01*
X29024Y25133D01*
X29119Y25206D01*
X29141Y25235D01*
X31092D01*
X31126Y25190D01*
X31221Y25118D01*
X31331Y25072D01*
X31449Y25056D01*
X31563Y25071D01*
X31567Y25068D01*
X31580Y25018D01*
X31523Y24960D01*
X31449Y24970D01*
X31331Y24954D01*
X31221Y24908D01*
X31126Y24836D01*
X31054Y24741D01*
X31008Y24631D01*
X30993Y24513D01*
X31008Y24395D01*
X31054Y24285D01*
X31126Y24190D01*
X31221Y24118D01*
X31331Y24072D01*
X31449Y24056D01*
X31567Y24072D01*
X31678Y24118D01*
X31772Y24190D01*
X31845Y24285D01*
X31890Y24395D01*
X31906Y24513D01*
X31901Y24552D01*
X36950Y29601D01*
X36996Y29582D01*
Y29060D01*
X37509D01*
X37564Y29005D01*
X37541Y28958D01*
X37449Y28970D01*
X37331Y28954D01*
X37221Y28909D01*
X37126Y28836D01*
X37054Y28741D01*
X37008Y28631D01*
X36993Y28513D01*
X37008Y28395D01*
X37054Y28285D01*
X37126Y28190D01*
X37221Y28118D01*
X37331Y28072D01*
X37449Y28056D01*
X37505Y28064D01*
X37564Y28005D01*
X37541Y27958D01*
X37449Y27970D01*
X37331Y27954D01*
X37221Y27908D01*
X37126Y27836D01*
X37054Y27741D01*
X37008Y27631D01*
X36993Y27513D01*
X37008Y27395D01*
X37054Y27285D01*
X37126Y27190D01*
X37221Y27118D01*
X37331Y27072D01*
X37449Y27056D01*
X37505Y27064D01*
X37564Y27005D01*
X37541Y26958D01*
X37449Y26970D01*
X37331Y26954D01*
X37221Y26909D01*
X37126Y26836D01*
X37054Y26741D01*
X37008Y26631D01*
X36993Y26513D01*
X37008Y26395D01*
X37054Y26285D01*
X37126Y26190D01*
X37221Y26118D01*
X37331Y26072D01*
X37449Y26056D01*
X37567Y26072D01*
X37678Y26118D01*
X37772Y26190D01*
X37845Y26285D01*
X37890Y26395D01*
X37906Y26513D01*
X37894Y26605D01*
X37941Y26628D01*
X39026Y25544D01*
Y24851D01*
X39035Y24779D01*
X39063Y24712D01*
X39107Y24655D01*
X41016Y22746D01*
X41046Y22723D01*
X41008Y22631D01*
X40993Y22513D01*
X41008Y22395D01*
X41054Y22285D01*
X41126Y22190D01*
X41221Y22118D01*
X41331Y22072D01*
X41449Y22056D01*
X41567Y22072D01*
X41678Y22118D01*
X41772Y22190D01*
X41845Y22285D01*
X41890Y22395D01*
X41906Y22513D01*
X41890Y22631D01*
X41845Y22741D01*
X41772Y22836D01*
X41727Y22870D01*
Y22942D01*
X41718Y23014D01*
X41690Y23081D01*
X41673Y23103D01*
X41678Y23118D01*
X41772Y23190D01*
X41845Y23285D01*
X41890Y23395D01*
X41906Y23513D01*
X41890Y23631D01*
X41845Y23741D01*
X41772Y23836D01*
X41727Y23870D01*
Y23942D01*
X41718Y24014D01*
X41690Y24081D01*
X41673Y24103D01*
X41678Y24118D01*
X41772Y24190D01*
X41845Y24285D01*
X41890Y24395D01*
X41906Y24513D01*
X41890Y24631D01*
X41845Y24741D01*
X41772Y24836D01*
X41727Y24870D01*
Y24942D01*
X41718Y25014D01*
X41690Y25081D01*
X41673Y25103D01*
X41678Y25118D01*
X41772Y25190D01*
X41845Y25285D01*
X41890Y25395D01*
X41906Y25513D01*
X41890Y25631D01*
X41845Y25741D01*
X41772Y25836D01*
X41727Y25870D01*
Y25942D01*
X41718Y26014D01*
X41690Y26081D01*
X41673Y26103D01*
X41678Y26118D01*
X41772Y26190D01*
X41845Y26285D01*
X41890Y26395D01*
X41906Y26513D01*
X41890Y26631D01*
X41845Y26741D01*
X41772Y26836D01*
X41727Y26870D01*
Y26913D01*
X41718Y26985D01*
X41707Y27010D01*
X41741Y27060D01*
X41902D01*
Y27966D01*
X41483D01*
X38381Y31068D01*
X38324Y31112D01*
X38257Y31140D01*
X38185Y31149D01*
D02*
G37*
G36*
X42844Y27908D02*
X42499D01*
Y27563D01*
X42844D01*
Y27908D01*
D02*
G37*
G36*
X42399Y26905D02*
X42346Y26898D01*
X42250Y26858D01*
X42167Y26795D01*
X42104Y26712D01*
X42064Y26616D01*
X42057Y26563D01*
X42399D01*
Y26905D01*
D02*
G37*
G36*
X42841Y26463D02*
X42499D01*
Y26121D01*
X42552Y26128D01*
X42649Y26168D01*
X42731Y26231D01*
X42794Y26314D01*
X42834Y26410D01*
X42841Y26463D01*
D02*
G37*
G36*
X42399Y27463D02*
X42054D01*
Y27118D01*
X42399D01*
Y27463D01*
D02*
G37*
G36*
X42499Y26905D02*
Y26563D01*
X42841D01*
X42834Y26616D01*
X42794Y26712D01*
X42731Y26795D01*
X42649Y26858D01*
X42552Y26898D01*
X42499Y26905D01*
D02*
G37*
G36*
X42841Y24463D02*
X42499D01*
Y24121D01*
X42552Y24128D01*
X42649Y24168D01*
X42731Y24231D01*
X42794Y24314D01*
X42834Y24410D01*
X42841Y24463D01*
D02*
G37*
G36*
X31449Y23970D02*
X31331Y23954D01*
X31221Y23909D01*
X31126Y23836D01*
X31054Y23741D01*
X31008Y23631D01*
X30993Y23513D01*
X31008Y23395D01*
X31054Y23285D01*
X31126Y23190D01*
X31221Y23118D01*
X31331Y23072D01*
X31449Y23056D01*
X31567Y23072D01*
X31678Y23118D01*
X31772Y23190D01*
X31845Y23285D01*
X31890Y23395D01*
X31906Y23513D01*
X31890Y23631D01*
X31845Y23741D01*
X31772Y23836D01*
X31678Y23909D01*
X31567Y23954D01*
X31449Y23970D01*
D02*
G37*
G36*
X37449Y22970D02*
X37331Y22954D01*
X37221Y22908D01*
X37126Y22836D01*
X37054Y22741D01*
X37008Y22631D01*
X36993Y22513D01*
X37008Y22395D01*
X37054Y22285D01*
X37126Y22190D01*
X37221Y22118D01*
X37331Y22072D01*
X37449Y22056D01*
X37567Y22072D01*
X37678Y22118D01*
X37772Y22190D01*
X37845Y22285D01*
X37890Y22395D01*
X37906Y22513D01*
X37890Y22631D01*
X37845Y22741D01*
X37772Y22836D01*
X37678Y22908D01*
X37567Y22954D01*
X37449Y22970D01*
D02*
G37*
G36*
X42399Y23463D02*
X42057D01*
X42064Y23410D01*
X42104Y23314D01*
X42167Y23231D01*
X42250Y23168D01*
X42346Y23128D01*
X42399Y23121D01*
Y23463D01*
D02*
G37*
G36*
X37449Y23970D02*
X37331Y23954D01*
X37221Y23909D01*
X37126Y23836D01*
X37054Y23741D01*
X37008Y23631D01*
X36993Y23513D01*
X37008Y23395D01*
X37054Y23285D01*
X37126Y23190D01*
X37221Y23118D01*
X37331Y23072D01*
X37449Y23056D01*
X37567Y23072D01*
X37678Y23118D01*
X37772Y23190D01*
X37845Y23285D01*
X37890Y23395D01*
X37906Y23513D01*
X37890Y23631D01*
X37845Y23741D01*
X37772Y23836D01*
X37678Y23909D01*
X37567Y23954D01*
X37449Y23970D01*
D02*
G37*
G36*
X42499Y22905D02*
Y22563D01*
X42841D01*
X42834Y22616D01*
X42794Y22712D01*
X42731Y22795D01*
X42649Y22858D01*
X42552Y22898D01*
X42499Y22905D01*
D02*
G37*
G36*
X42399Y22905D02*
X42346Y22898D01*
X42250Y22858D01*
X42167Y22795D01*
X42104Y22712D01*
X42064Y22616D01*
X42057Y22563D01*
X42399D01*
Y22905D01*
D02*
G37*
G36*
Y22463D02*
X42057D01*
X42064Y22410D01*
X42104Y22314D01*
X42167Y22231D01*
X42250Y22168D01*
X42346Y22128D01*
X42399Y22121D01*
Y22463D01*
D02*
G37*
G36*
X42841D02*
X42499D01*
Y22121D01*
X42552Y22128D01*
X42649Y22168D01*
X42731Y22231D01*
X42794Y22314D01*
X42834Y22410D01*
X42841Y22463D01*
D02*
G37*
G36*
X37449Y24970D02*
X37331Y24954D01*
X37221Y24908D01*
X37126Y24836D01*
X37054Y24741D01*
X37008Y24631D01*
X36993Y24513D01*
X37008Y24395D01*
X37054Y24285D01*
X37126Y24190D01*
X37221Y24118D01*
X37331Y24072D01*
X37449Y24056D01*
X37567Y24072D01*
X37678Y24118D01*
X37772Y24190D01*
X37845Y24285D01*
X37890Y24395D01*
X37906Y24513D01*
X37890Y24631D01*
X37845Y24741D01*
X37772Y24836D01*
X37678Y24908D01*
X37567Y24954D01*
X37449Y24970D01*
D02*
G37*
G36*
X42399Y24463D02*
X42057D01*
X42064Y24410D01*
X42104Y24314D01*
X42167Y24231D01*
X42250Y24168D01*
X42346Y24128D01*
X42399Y24121D01*
Y24463D01*
D02*
G37*
G36*
X29191Y23924D02*
X28846D01*
Y23579D01*
X29191D01*
Y23924D01*
D02*
G37*
G36*
X42499Y23905D02*
Y23563D01*
X42841D01*
X42834Y23616D01*
X42794Y23712D01*
X42731Y23795D01*
X42649Y23858D01*
X42552Y23898D01*
X42499Y23905D01*
D02*
G37*
G36*
X28746Y23479D02*
X28400D01*
Y23133D01*
X28746D01*
Y23479D01*
D02*
G37*
G36*
X42841Y23463D02*
X42499D01*
Y23121D01*
X42552Y23128D01*
X42649Y23168D01*
X42731Y23231D01*
X42794Y23314D01*
X42834Y23410D01*
X42841Y23463D01*
D02*
G37*
G36*
X42399Y23905D02*
X42346Y23898D01*
X42250Y23858D01*
X42167Y23795D01*
X42104Y23712D01*
X42064Y23616D01*
X42057Y23563D01*
X42399D01*
Y23905D01*
D02*
G37*
G36*
X29191Y23479D02*
X28846D01*
Y23133D01*
X29191D01*
Y23479D01*
D02*
G37*
%LPD*%
G36*
X34378Y15192D02*
X34358Y15145D01*
X31787D01*
X31786Y15149D01*
X31776Y15195D01*
X31845Y15285D01*
X31890Y15395D01*
X31906Y15513D01*
X31890Y15631D01*
X31845Y15741D01*
X31772Y15836D01*
X31678Y15908D01*
X31567Y15954D01*
X31449Y15970D01*
X31331Y15954D01*
X31221Y15908D01*
X31126Y15836D01*
X31054Y15741D01*
X31008Y15631D01*
X30993Y15513D01*
X31008Y15395D01*
X31054Y15285D01*
X31122Y15195D01*
X31112Y15149D01*
X31111Y15145D01*
X28517D01*
X28465Y15198D01*
X28484Y15244D01*
X28746D01*
Y15639D01*
X28796D01*
Y15689D01*
X29191D01*
Y16034D01*
X29090D01*
X29073Y16084D01*
X29119Y16119D01*
X29153Y16164D01*
X29378D01*
X29450Y16174D01*
X29517Y16201D01*
X29575Y16246D01*
X30957Y17628D01*
X31005Y17605D01*
X30993Y17513D01*
X31008Y17395D01*
X31054Y17285D01*
X31126Y17190D01*
X31221Y17118D01*
X31331Y17072D01*
X31449Y17056D01*
X31567Y17072D01*
X31678Y17118D01*
X31772Y17190D01*
X31845Y17285D01*
X31890Y17395D01*
X31906Y17513D01*
X31894Y17605D01*
X31941Y17628D01*
X34378Y15192D01*
D02*
G37*
G36*
X29520Y28316D02*
X29578Y28272D01*
X29645Y28245D01*
X29717Y28235D01*
X31092D01*
X31126Y28190D01*
X31221Y28118D01*
X31331Y28072D01*
X31449Y28056D01*
X31567Y28072D01*
X31678Y28118D01*
X31772Y28190D01*
X31807Y28235D01*
X34732D01*
X34752Y28189D01*
X31945Y25382D01*
X31894Y25395D01*
X31891Y25399D01*
X31906Y25513D01*
X31890Y25631D01*
X31845Y25741D01*
X31772Y25836D01*
X31678Y25909D01*
X31567Y25954D01*
X31449Y25970D01*
X31331Y25954D01*
X31221Y25909D01*
X31126Y25836D01*
X31092Y25791D01*
X29165D01*
X29119Y25852D01*
X29024Y25924D01*
X28914Y25970D01*
X28796Y25985D01*
X28677Y25970D01*
X28582Y25930D01*
X28541Y25947D01*
X28528Y25957D01*
X28525Y25976D01*
X28785Y26235D01*
X31092D01*
X31126Y26190D01*
X31221Y26118D01*
X31331Y26072D01*
X31449Y26056D01*
X31567Y26072D01*
X31678Y26118D01*
X31772Y26190D01*
X31845Y26285D01*
X31890Y26395D01*
X31906Y26513D01*
X31890Y26631D01*
X31845Y26741D01*
X31772Y26836D01*
X31678Y26909D01*
X31567Y26954D01*
X31449Y26970D01*
X31331Y26954D01*
X31221Y26909D01*
X31126Y26836D01*
X31092Y26791D01*
X28670D01*
X28598Y26782D01*
X28531Y26754D01*
X28473Y26710D01*
X28155Y26392D01*
X28109Y26411D01*
Y27355D01*
X28354Y27600D01*
X28400Y27581D01*
Y27484D01*
X28746D01*
Y27830D01*
X28649D01*
X28630Y27876D01*
X28739Y27985D01*
X28796Y27978D01*
X28914Y27993D01*
X29024Y28039D01*
X29119Y28111D01*
X29191Y28206D01*
X29237Y28316D01*
X29252Y28434D01*
X29240Y28526D01*
X29288Y28549D01*
X29520Y28316D01*
D02*
G37*
%LPC*%
G36*
X29191Y15589D02*
X28846D01*
Y15244D01*
X29191D01*
Y15589D01*
D02*
G37*
G36*
X31499Y16905D02*
Y16563D01*
X31841D01*
X31834Y16616D01*
X31794Y16712D01*
X31731Y16795D01*
X31649Y16858D01*
X31552Y16898D01*
X31499Y16905D01*
D02*
G37*
G36*
X31399Y16463D02*
X31057D01*
X31064Y16410D01*
X31104Y16314D01*
X31167Y16231D01*
X31250Y16168D01*
X31346Y16128D01*
X31399Y16121D01*
Y16463D01*
D02*
G37*
G36*
X31841D02*
X31499D01*
Y16121D01*
X31552Y16128D01*
X31649Y16168D01*
X31731Y16231D01*
X31794Y16314D01*
X31834Y16410D01*
X31841Y16463D01*
D02*
G37*
G36*
X31399Y16905D02*
X31346Y16898D01*
X31250Y16858D01*
X31167Y16795D01*
X31104Y16712D01*
X31064Y16616D01*
X31057Y16563D01*
X31399D01*
Y16905D01*
D02*
G37*
G36*
X29191Y27830D02*
X28846D01*
Y27484D01*
X29191D01*
Y27830D01*
D02*
G37*
G36*
X31449Y27970D02*
X31331Y27954D01*
X31221Y27908D01*
X31126Y27836D01*
X31054Y27741D01*
X31008Y27631D01*
X30993Y27513D01*
X31008Y27395D01*
X31054Y27285D01*
X31126Y27190D01*
X31221Y27118D01*
X31331Y27072D01*
X31449Y27056D01*
X31567Y27072D01*
X31678Y27118D01*
X31772Y27190D01*
X31845Y27285D01*
X31890Y27395D01*
X31906Y27513D01*
X31890Y27631D01*
X31845Y27741D01*
X31772Y27836D01*
X31678Y27908D01*
X31567Y27954D01*
X31449Y27970D01*
D02*
G37*
G36*
X29191Y27384D02*
X28846D01*
Y27039D01*
X29191D01*
Y27384D01*
D02*
G37*
G36*
X28746D02*
X28400D01*
Y27039D01*
X28746D01*
Y27384D01*
D02*
G37*
%LPD*%
D11*
X28796Y15639D02*
D03*
Y19592D02*
D03*
Y23529D02*
D03*
Y27434D02*
D03*
X31449Y29513D02*
D03*
X37449D02*
D03*
X41449Y27513D02*
D03*
X42449D02*
D03*
D12*
X28796Y16442D02*
D03*
Y17230D02*
D03*
Y18017D02*
D03*
Y20379D02*
D03*
Y21167D02*
D03*
Y21954D02*
D03*
X31449Y18513D02*
D03*
Y17513D02*
D03*
Y16513D02*
D03*
Y15513D02*
D03*
Y19513D02*
D03*
Y20513D02*
D03*
Y21513D02*
D03*
Y22513D02*
D03*
Y23513D02*
D03*
Y24513D02*
D03*
Y25513D02*
D03*
Y26513D02*
D03*
Y27513D02*
D03*
Y28513D02*
D03*
X28796Y29434D02*
D03*
Y28434D02*
D03*
Y25529D02*
D03*
Y24529D02*
D03*
X37449Y15513D02*
D03*
Y16513D02*
D03*
Y17513D02*
D03*
Y18513D02*
D03*
Y19513D02*
D03*
Y20513D02*
D03*
Y21513D02*
D03*
Y22513D02*
D03*
Y23513D02*
D03*
Y24513D02*
D03*
Y25513D02*
D03*
Y26513D02*
D03*
Y27513D02*
D03*
Y28513D02*
D03*
X41449Y24513D02*
D03*
Y23513D02*
D03*
Y22513D02*
D03*
Y21513D02*
D03*
Y20513D02*
D03*
Y19513D02*
D03*
Y18513D02*
D03*
Y17513D02*
D03*
Y16513D02*
D03*
Y15513D02*
D03*
X42449D02*
D03*
Y16513D02*
D03*
Y17513D02*
D03*
Y18513D02*
D03*
Y19513D02*
D03*
Y20513D02*
D03*
Y21513D02*
D03*
Y22513D02*
D03*
Y23513D02*
D03*
Y24513D02*
D03*
Y25513D02*
D03*
Y26513D02*
D03*
X41449D02*
D03*
Y25513D02*
D03*
D13*
X26827Y18478D02*
X27288Y18017D01*
X27988D01*
Y15281D01*
X28402Y14867D01*
X35095D01*
X35807Y14155D01*
X38012D01*
X39370Y15513D01*
X41449D01*
Y16513D02*
X41431Y16531D01*
X39831D01*
X37849Y14548D01*
X36857D01*
X31892Y19513D01*
X31449D01*
Y18513D02*
X35095Y14867D01*
X37020Y14942D02*
X37686D01*
X40257Y17513D01*
X41449D01*
Y18513D02*
X40449D01*
X37449Y15513D01*
X37020Y14942D02*
X31449Y20513D01*
Y21513D02*
X31008Y21954D01*
X28796D01*
Y20379D02*
X29583D01*
X31158Y18804D01*
X31449Y18513D01*
X29378Y16442D01*
X28796D01*
Y18017D02*
Y18411D01*
X27451D01*
X27221Y18641D01*
Y23511D01*
X28225Y24515D01*
Y26068D01*
X28670Y26513D01*
X31449D01*
Y25513D02*
X28811D01*
X28796Y25529D01*
Y24529D02*
X27615Y23348D01*
Y18804D01*
X31158D01*
X26827Y23674D02*
X27831Y24678D01*
Y27470D01*
X28796Y28434D01*
X29717Y28513D02*
X31449D01*
X34912D01*
X36877Y30478D01*
X38022D01*
X40878Y27621D01*
Y27104D01*
X41040Y26942D01*
X41420D01*
X41449Y26913D01*
Y26513D01*
Y25942D02*
X41213D01*
X40485Y26670D01*
Y27458D01*
X37859Y30084D01*
X37040D01*
X31469Y24513D01*
X31449D01*
X29717Y28513D02*
X28796Y29434D01*
X31449Y29513D02*
X35355D01*
X36714Y30871D01*
X38185D01*
X41449Y27607D01*
Y27513D01*
X40091Y26871D02*
X37449Y29513D01*
Y28513D02*
X39697Y26265D01*
Y25458D01*
X41213Y23942D01*
X41449D01*
Y23513D01*
Y22942D02*
X41213D01*
X39304Y24851D01*
Y25659D01*
X37449Y27513D01*
X40091Y26871D02*
Y26064D01*
X41213Y24942D01*
X41449D01*
Y24513D01*
Y25513D02*
Y25942D01*
Y22942D02*
Y22513D01*
Y21513D02*
X37449D01*
Y20513D02*
X41449D01*
Y19513D02*
X40842D01*
X37842Y16513D01*
X37449D01*
X26827Y23674D02*
Y18478D01*
M02*
