G04 Layer_Physical_Order=1*
G04 Layer_Color=255*
%FSLAX24Y24*%
%MOIN*%
G70*
G01*
G75*
%ADD10C,0.0236*%
%ADD11C,0.0591*%
%ADD12R,0.0591X0.0591*%
%ADD13C,0.0500*%
G36*
X62677Y48835D02*
Y16126D01*
X62575Y16024D01*
X45693D01*
X45591Y16126D01*
Y17778D01*
X45641Y17803D01*
X45690Y17765D01*
X45775Y17730D01*
X45816Y17724D01*
Y18071D01*
Y18417D01*
X45775Y18412D01*
X45690Y18377D01*
X45641Y18339D01*
X45591Y18364D01*
Y23762D01*
X45641Y23787D01*
X45690Y23749D01*
X45775Y23714D01*
X45816Y23709D01*
Y24055D01*
Y24402D01*
X45775Y24396D01*
X45690Y24361D01*
X45641Y24323D01*
X45591Y24348D01*
Y29747D01*
X45641Y29771D01*
X45690Y29734D01*
X45775Y29698D01*
X45816Y29693D01*
Y30039D01*
Y30386D01*
X45775Y30380D01*
X45690Y30345D01*
X45641Y30307D01*
X45591Y30332D01*
Y48827D01*
X45630Y48858D01*
X62654D01*
X62677Y48835D01*
D02*
G37*
%LPC*%
G36*
X57087Y24276D02*
X56968Y24260D01*
X56858Y24214D01*
X56764Y24142D01*
X56691Y24047D01*
X56646Y23937D01*
X56630Y23819D01*
X56646Y23701D01*
X56691Y23591D01*
X56764Y23496D01*
X56858Y23423D01*
X56968Y23378D01*
X57087Y23362D01*
X57205Y23378D01*
X57315Y23423D01*
X57410Y23496D01*
X57482Y23591D01*
X57528Y23701D01*
X57543Y23819D01*
X57528Y23937D01*
X57482Y24047D01*
X57410Y24142D01*
X57315Y24214D01*
X57205Y24260D01*
X57087Y24276D01*
D02*
G37*
G36*
X46870Y23455D02*
Y23113D01*
X47213D01*
X47206Y23166D01*
X47166Y23262D01*
X47102Y23345D01*
X47020Y23408D01*
X46924Y23448D01*
X46870Y23455D01*
D02*
G37*
G36*
X46770Y23455D02*
X46717Y23448D01*
X46621Y23408D01*
X46539Y23345D01*
X46475Y23262D01*
X46435Y23166D01*
X46428Y23113D01*
X46770D01*
Y23455D01*
D02*
G37*
G36*
Y24013D02*
X46428D01*
X46435Y23960D01*
X46475Y23864D01*
X46539Y23781D01*
X46621Y23718D01*
X46717Y23678D01*
X46770Y23671D01*
Y24013D01*
D02*
G37*
G36*
X45916Y24402D02*
Y24105D01*
X46213D01*
X46207Y24146D01*
X46172Y24232D01*
X46116Y24305D01*
X46043Y24361D01*
X45958Y24396D01*
X45916Y24402D01*
D02*
G37*
G36*
X46213Y24005D02*
X45916D01*
Y23709D01*
X45958Y23714D01*
X46043Y23749D01*
X46116Y23805D01*
X46172Y23879D01*
X46207Y23964D01*
X46213Y24005D01*
D02*
G37*
G36*
X47213Y24013D02*
X46870D01*
Y23671D01*
X46924Y23678D01*
X47020Y23718D01*
X47102Y23781D01*
X47166Y23864D01*
X47206Y23960D01*
X47213Y24013D01*
D02*
G37*
G36*
X46870Y22455D02*
Y22113D01*
X47213D01*
X47206Y22166D01*
X47166Y22262D01*
X47102Y22345D01*
X47020Y22408D01*
X46924Y22448D01*
X46870Y22455D01*
D02*
G37*
G36*
X57087Y23276D02*
X56968Y23260D01*
X56858Y23214D01*
X56764Y23142D01*
X56691Y23047D01*
X56646Y22937D01*
X56630Y22819D01*
X56646Y22701D01*
X56691Y22591D01*
X56764Y22496D01*
X56858Y22423D01*
X56968Y22378D01*
X57087Y22362D01*
X57205Y22378D01*
X57315Y22423D01*
X57410Y22496D01*
X57482Y22591D01*
X57528Y22701D01*
X57543Y22819D01*
X57528Y22937D01*
X57482Y23047D01*
X57410Y23142D01*
X57315Y23214D01*
X57205Y23260D01*
X57087Y23276D01*
D02*
G37*
G36*
X56213Y22312D02*
X55916D01*
Y22016D01*
X55958Y22021D01*
X56043Y22056D01*
X56116Y22113D01*
X56172Y22186D01*
X56207Y22271D01*
X56213Y22312D01*
D02*
G37*
G36*
X46770Y22455D02*
X46717Y22448D01*
X46621Y22408D01*
X46539Y22345D01*
X46475Y22262D01*
X46435Y22166D01*
X46428Y22113D01*
X46770D01*
Y22455D01*
D02*
G37*
G36*
Y23013D02*
X46428D01*
X46435Y22960D01*
X46475Y22864D01*
X46539Y22781D01*
X46621Y22718D01*
X46717Y22678D01*
X46770Y22671D01*
Y23013D01*
D02*
G37*
G36*
X47213D02*
X46870D01*
Y22671D01*
X46924Y22678D01*
X47020Y22718D01*
X47102Y22781D01*
X47166Y22864D01*
X47206Y22960D01*
X47213Y23013D01*
D02*
G37*
G36*
X55816Y22709D02*
X55775Y22703D01*
X55690Y22668D01*
X55617Y22612D01*
X55560Y22539D01*
X55525Y22454D01*
X55520Y22412D01*
X55816D01*
Y22709D01*
D02*
G37*
G36*
X55916D02*
Y22412D01*
X56213D01*
X56207Y22454D01*
X56172Y22539D01*
X56116Y22612D01*
X56043Y22668D01*
X55958Y22703D01*
X55916Y22709D01*
D02*
G37*
G36*
X46770Y26013D02*
X46428D01*
X46435Y25960D01*
X46475Y25864D01*
X46539Y25781D01*
X46621Y25718D01*
X46717Y25678D01*
X46770Y25671D01*
Y26013D01*
D02*
G37*
G36*
X47213D02*
X46870D01*
Y25671D01*
X46924Y25678D01*
X47020Y25718D01*
X47102Y25781D01*
X47166Y25864D01*
X47206Y25960D01*
X47213Y26013D01*
D02*
G37*
G36*
X47820Y26520D02*
X47702Y26504D01*
X47592Y26458D01*
X47498Y26386D01*
X47425Y26291D01*
X47379Y26181D01*
X47364Y26063D01*
X47379Y25945D01*
X47425Y25835D01*
X47498Y25740D01*
X47592Y25668D01*
X47702Y25622D01*
X47820Y25606D01*
X47887Y25615D01*
X47894Y25609D01*
X47962Y25582D01*
X48033Y25572D01*
X49550D01*
X49559Y25559D01*
X49644Y25494D01*
X49686Y25477D01*
Y25423D01*
X49644Y25406D01*
X49559Y25341D01*
X49550Y25328D01*
X48188D01*
X48143Y25386D01*
X48049Y25458D01*
X47939Y25504D01*
X47820Y25520D01*
X47702Y25504D01*
X47592Y25458D01*
X47498Y25386D01*
X47425Y25291D01*
X47379Y25181D01*
X47364Y25063D01*
X47379Y24945D01*
X47425Y24835D01*
X47498Y24740D01*
X47592Y24668D01*
X47702Y24622D01*
X47820Y24606D01*
X47939Y24622D01*
X48049Y24668D01*
X48143Y24740D01*
X48168Y24772D01*
X49550D01*
X49559Y24759D01*
X49644Y24694D01*
X49744Y24653D01*
X49850Y24639D01*
X49956Y24653D01*
X50055Y24694D01*
X50141Y24759D01*
X50206Y24845D01*
X50247Y24944D01*
X50261Y25050D01*
X50247Y25156D01*
X50206Y25255D01*
X50141Y25341D01*
X50055Y25406D01*
X50014Y25423D01*
Y25477D01*
X50055Y25494D01*
X50141Y25559D01*
X50206Y25645D01*
X50247Y25744D01*
X50261Y25850D01*
X50247Y25956D01*
X50206Y26056D01*
X50141Y26141D01*
X50055Y26206D01*
X49956Y26247D01*
X49850Y26261D01*
X49744Y26247D01*
X49644Y26206D01*
X49559Y26141D01*
X49550Y26128D01*
X48269D01*
X48262Y26181D01*
X48216Y26291D01*
X48143Y26386D01*
X48049Y26458D01*
X47939Y26504D01*
X47820Y26520D01*
D02*
G37*
G36*
X57087Y26276D02*
X56968Y26260D01*
X56858Y26214D01*
X56764Y26142D01*
X56691Y26047D01*
X56646Y25937D01*
X56630Y25819D01*
X56646Y25701D01*
X56691Y25591D01*
X56764Y25496D01*
X56858Y25423D01*
X56968Y25378D01*
X57087Y25362D01*
X57205Y25378D01*
X57315Y25423D01*
X57410Y25496D01*
X57482Y25591D01*
X57528Y25701D01*
X57543Y25819D01*
X57528Y25937D01*
X57482Y26047D01*
X57410Y26142D01*
X57315Y26214D01*
X57205Y26260D01*
X57087Y26276D01*
D02*
G37*
G36*
Y27276D02*
X56968Y27260D01*
X56858Y27214D01*
X56764Y27142D01*
X56691Y27047D01*
X56646Y26937D01*
X56630Y26819D01*
X56646Y26701D01*
X56691Y26591D01*
X56764Y26496D01*
X56858Y26423D01*
X56968Y26378D01*
X57087Y26362D01*
X57205Y26378D01*
X57315Y26423D01*
X57410Y26496D01*
X57482Y26591D01*
X57528Y26701D01*
X57543Y26819D01*
X57528Y26937D01*
X57482Y27047D01*
X57410Y27142D01*
X57315Y27214D01*
X57205Y27260D01*
X57087Y27276D01*
D02*
G37*
G36*
X47820Y27520D02*
X47702Y27504D01*
X47592Y27458D01*
X47498Y27386D01*
X47425Y27291D01*
X47379Y27181D01*
X47364Y27063D01*
X47379Y26945D01*
X47425Y26835D01*
X47498Y26740D01*
X47592Y26668D01*
X47702Y26622D01*
X47820Y26606D01*
X47939Y26622D01*
X48049Y26668D01*
X48055Y26672D01*
X49100D01*
X49109Y26659D01*
X49194Y26594D01*
X49294Y26553D01*
X49400Y26539D01*
X49506Y26553D01*
X49605Y26594D01*
X49691Y26659D01*
X49756Y26744D01*
X49797Y26844D01*
X49811Y26950D01*
X49797Y27056D01*
X49756Y27155D01*
X49691Y27241D01*
X49605Y27306D01*
X49506Y27347D01*
X49400Y27361D01*
X49294Y27347D01*
X49194Y27306D01*
X49109Y27241D01*
X49100Y27228D01*
X48242D01*
X48216Y27291D01*
X48143Y27386D01*
X48049Y27458D01*
X47939Y27504D01*
X47820Y27520D01*
D02*
G37*
G36*
X46770Y26455D02*
X46717Y26448D01*
X46621Y26408D01*
X46539Y26345D01*
X46475Y26262D01*
X46435Y26166D01*
X46428Y26113D01*
X46770D01*
Y26455D01*
D02*
G37*
G36*
X46870Y26455D02*
Y26113D01*
X47213D01*
X47206Y26166D01*
X47166Y26262D01*
X47102Y26345D01*
X47020Y26408D01*
X46924Y26448D01*
X46870Y26455D01*
D02*
G37*
G36*
X57087Y25276D02*
X56968Y25260D01*
X56858Y25214D01*
X56764Y25142D01*
X56691Y25047D01*
X56646Y24937D01*
X56630Y24819D01*
X56646Y24701D01*
X56691Y24591D01*
X56764Y24496D01*
X56858Y24423D01*
X56968Y24378D01*
X57087Y24362D01*
X57205Y24378D01*
X57315Y24423D01*
X57410Y24496D01*
X57482Y24591D01*
X57528Y24701D01*
X57543Y24819D01*
X57528Y24937D01*
X57482Y25047D01*
X57410Y25142D01*
X57315Y25214D01*
X57205Y25260D01*
X57087Y25276D01*
D02*
G37*
G36*
X49850Y24561D02*
X49744Y24547D01*
X49644Y24506D01*
X49559Y24441D01*
X49550Y24428D01*
X48089D01*
X48049Y24458D01*
X47939Y24504D01*
X47820Y24520D01*
X47702Y24504D01*
X47592Y24458D01*
X47498Y24386D01*
X47425Y24291D01*
X47379Y24181D01*
X47364Y24063D01*
X47379Y23945D01*
X47425Y23835D01*
X47498Y23740D01*
X47592Y23668D01*
X47702Y23622D01*
X47820Y23606D01*
X47912Y23618D01*
X47935Y23571D01*
X47877Y23512D01*
X47820Y23520D01*
X47702Y23504D01*
X47592Y23458D01*
X47498Y23386D01*
X47425Y23291D01*
X47379Y23181D01*
X47364Y23063D01*
X47379Y22945D01*
X47425Y22835D01*
X47498Y22740D01*
X47592Y22668D01*
X47702Y22622D01*
X47820Y22606D01*
X47939Y22622D01*
X48049Y22668D01*
X48143Y22740D01*
X48216Y22835D01*
X48262Y22945D01*
X48277Y23063D01*
X48270Y23119D01*
X48323Y23172D01*
X49650D01*
X49659Y23159D01*
X49745Y23094D01*
X49844Y23053D01*
X49950Y23039D01*
X50056Y23053D01*
X50156Y23094D01*
X50241Y23159D01*
X50306Y23245D01*
X50347Y23344D01*
X50361Y23450D01*
X50347Y23556D01*
X50306Y23656D01*
X50241Y23741D01*
X50156Y23806D01*
X50147Y23810D01*
X50144Y23828D01*
X50145Y23865D01*
X50206Y23944D01*
X50247Y24044D01*
X50261Y24150D01*
X50247Y24256D01*
X50206Y24355D01*
X50141Y24441D01*
X50055Y24506D01*
X49956Y24547D01*
X49850Y24561D01*
D02*
G37*
G36*
X46770Y24455D02*
X46717Y24448D01*
X46621Y24408D01*
X46539Y24345D01*
X46475Y24262D01*
X46435Y24166D01*
X46428Y24113D01*
X46770D01*
Y24455D01*
D02*
G37*
G36*
X46870Y24455D02*
Y24113D01*
X47213D01*
X47206Y24166D01*
X47166Y24262D01*
X47102Y24345D01*
X47020Y24408D01*
X46924Y24448D01*
X46870Y24455D01*
D02*
G37*
G36*
X46770Y25455D02*
X46717Y25448D01*
X46621Y25408D01*
X46539Y25345D01*
X46475Y25262D01*
X46435Y25166D01*
X46428Y25113D01*
X46770D01*
Y25455D01*
D02*
G37*
G36*
X46870Y25455D02*
Y25113D01*
X47213D01*
X47206Y25166D01*
X47166Y25262D01*
X47102Y25345D01*
X47020Y25408D01*
X46924Y25448D01*
X46870Y25455D01*
D02*
G37*
G36*
X46770Y25013D02*
X46428D01*
X46435Y24960D01*
X46475Y24864D01*
X46539Y24781D01*
X46621Y24718D01*
X46717Y24678D01*
X46770Y24671D01*
Y25013D01*
D02*
G37*
G36*
X47213D02*
X46870D01*
Y24671D01*
X46924Y24678D01*
X47020Y24718D01*
X47102Y24781D01*
X47166Y24864D01*
X47206Y24960D01*
X47213Y25013D01*
D02*
G37*
G36*
X46770Y19455D02*
X46717Y19448D01*
X46621Y19408D01*
X46539Y19345D01*
X46475Y19262D01*
X46435Y19166D01*
X46428Y19113D01*
X46770D01*
Y19455D01*
D02*
G37*
G36*
X46870Y19455D02*
Y19113D01*
X47213D01*
X47206Y19166D01*
X47166Y19262D01*
X47102Y19345D01*
X47020Y19408D01*
X46924Y19448D01*
X46870Y19455D01*
D02*
G37*
G36*
X46770Y19013D02*
X46428D01*
X46435Y18960D01*
X46475Y18864D01*
X46539Y18781D01*
X46621Y18718D01*
X46717Y18678D01*
X46770Y18671D01*
Y19013D01*
D02*
G37*
G36*
X47213D02*
X46870D01*
Y18671D01*
X46924Y18678D01*
X47020Y18718D01*
X47102Y18781D01*
X47166Y18864D01*
X47206Y18960D01*
X47213Y19013D01*
D02*
G37*
G36*
X46770Y20013D02*
X46428D01*
X46435Y19960D01*
X46475Y19864D01*
X46539Y19781D01*
X46621Y19718D01*
X46717Y19678D01*
X46770Y19671D01*
Y20013D01*
D02*
G37*
G36*
X47213D02*
X46870D01*
Y19671D01*
X46924Y19678D01*
X47020Y19718D01*
X47102Y19781D01*
X47166Y19864D01*
X47206Y19960D01*
X47213Y20013D01*
D02*
G37*
G36*
X57037Y19769D02*
X56691D01*
Y19424D01*
X57037D01*
Y19769D01*
D02*
G37*
G36*
X57482D02*
X57137D01*
Y19424D01*
X57482D01*
Y19769D01*
D02*
G37*
G36*
X47820Y18520D02*
X47702Y18504D01*
X47592Y18458D01*
X47498Y18386D01*
X47425Y18291D01*
X47379Y18181D01*
X47364Y18063D01*
X47379Y17945D01*
X47425Y17835D01*
X47498Y17740D01*
X47592Y17668D01*
X47702Y17622D01*
X47820Y17606D01*
X47939Y17622D01*
X48049Y17668D01*
X48143Y17740D01*
X48178Y17785D01*
X48341D01*
X48394Y17744D01*
X48494Y17703D01*
X48600Y17689D01*
X48706Y17703D01*
X48805Y17744D01*
X48891Y17809D01*
X48956Y17895D01*
X48997Y17994D01*
X49011Y18100D01*
X48997Y18206D01*
X48956Y18305D01*
X48891Y18391D01*
X48805Y18456D01*
X48706Y18497D01*
X48600Y18511D01*
X48494Y18497D01*
X48394Y18456D01*
X48309Y18391D01*
X48271Y18341D01*
X48178D01*
X48143Y18386D01*
X48049Y18458D01*
X47939Y18504D01*
X47820Y18520D01*
D02*
G37*
G36*
X46213Y18021D02*
X45916D01*
Y17724D01*
X45958Y17730D01*
X46043Y17765D01*
X46116Y17821D01*
X46172Y17894D01*
X46207Y17980D01*
X46213Y18021D01*
D02*
G37*
G36*
X46770Y18013D02*
X46428D01*
X46435Y17960D01*
X46475Y17864D01*
X46539Y17781D01*
X46621Y17718D01*
X46717Y17678D01*
X46770Y17671D01*
Y18013D01*
D02*
G37*
G36*
X47213D02*
X46870D01*
Y17671D01*
X46924Y17678D01*
X47020Y17718D01*
X47102Y17781D01*
X47166Y17864D01*
X47206Y17960D01*
X47213Y18013D01*
D02*
G37*
G36*
X45916Y18417D02*
Y18121D01*
X46213D01*
X46207Y18162D01*
X46172Y18247D01*
X46116Y18320D01*
X46043Y18377D01*
X45958Y18412D01*
X45916Y18417D01*
D02*
G37*
G36*
X47820Y19520D02*
X47702Y19504D01*
X47592Y19458D01*
X47498Y19386D01*
X47425Y19291D01*
X47379Y19181D01*
X47364Y19063D01*
X47379Y18945D01*
X47425Y18835D01*
X47498Y18740D01*
X47592Y18668D01*
X47702Y18622D01*
X47820Y18606D01*
X47939Y18622D01*
X48049Y18668D01*
X48143Y18740D01*
X48178Y18785D01*
X48840D01*
X48859Y18759D01*
X48945Y18694D01*
X49044Y18653D01*
X49150Y18639D01*
X49256Y18653D01*
X49356Y18694D01*
X49441Y18759D01*
X49506Y18844D01*
X49547Y18944D01*
X49561Y19050D01*
X49547Y19156D01*
X49506Y19255D01*
X49441Y19341D01*
X49356Y19406D01*
X49256Y19447D01*
X49150Y19461D01*
X49044Y19447D01*
X48945Y19406D01*
X48860Y19341D01*
X48178D01*
X48143Y19386D01*
X48049Y19458D01*
X47939Y19504D01*
X47820Y19520D01*
D02*
G37*
G36*
X46770Y18455D02*
X46717Y18448D01*
X46621Y18408D01*
X46539Y18345D01*
X46475Y18262D01*
X46435Y18166D01*
X46428Y18113D01*
X46770D01*
Y18455D01*
D02*
G37*
G36*
X46870Y18455D02*
Y18113D01*
X47213D01*
X47206Y18166D01*
X47166Y18262D01*
X47102Y18345D01*
X47020Y18408D01*
X46924Y18448D01*
X46870Y18455D01*
D02*
G37*
G36*
Y21455D02*
Y21113D01*
X47213D01*
X47206Y21166D01*
X47166Y21262D01*
X47102Y21345D01*
X47020Y21408D01*
X46924Y21448D01*
X46870Y21455D01*
D02*
G37*
G36*
X57087Y22276D02*
X56968Y22260D01*
X56858Y22214D01*
X56764Y22142D01*
X56691Y22047D01*
X56646Y21937D01*
X56630Y21819D01*
X56646Y21701D01*
X56691Y21591D01*
X56764Y21496D01*
X56858Y21423D01*
X56968Y21378D01*
X57087Y21362D01*
X57205Y21378D01*
X57315Y21423D01*
X57410Y21496D01*
X57482Y21591D01*
X57528Y21701D01*
X57543Y21819D01*
X57528Y21937D01*
X57482Y22047D01*
X57410Y22142D01*
X57315Y22214D01*
X57205Y22260D01*
X57087Y22276D01*
D02*
G37*
G36*
X47213Y21013D02*
X46870D01*
Y20671D01*
X46924Y20678D01*
X47020Y20718D01*
X47102Y20781D01*
X47166Y20864D01*
X47206Y20960D01*
X47213Y21013D01*
D02*
G37*
G36*
X46770Y21455D02*
X46717Y21448D01*
X46621Y21408D01*
X46539Y21345D01*
X46475Y21262D01*
X46435Y21166D01*
X46428Y21113D01*
X46770D01*
Y21455D01*
D02*
G37*
G36*
X47213Y22013D02*
X46870D01*
Y21671D01*
X46924Y21678D01*
X47020Y21718D01*
X47102Y21781D01*
X47166Y21864D01*
X47206Y21960D01*
X47213Y22013D01*
D02*
G37*
G36*
X55816Y22312D02*
X55520D01*
X55525Y22271D01*
X55560Y22186D01*
X55617Y22113D01*
X55690Y22056D01*
X55775Y22021D01*
X55816Y22016D01*
Y22312D01*
D02*
G37*
G36*
X47820Y22520D02*
X47702Y22504D01*
X47592Y22458D01*
X47498Y22386D01*
X47425Y22291D01*
X47379Y22181D01*
X47364Y22063D01*
X47379Y21945D01*
X47425Y21835D01*
X47498Y21740D01*
X47592Y21668D01*
X47702Y21622D01*
X47820Y21606D01*
X47939Y21622D01*
X48049Y21668D01*
X48120Y21722D01*
X49450D01*
X49459Y21709D01*
X49545Y21644D01*
X49644Y21603D01*
X49750Y21589D01*
X49856Y21603D01*
X49956Y21644D01*
X50041Y21709D01*
X50106Y21795D01*
X50147Y21894D01*
X50161Y22000D01*
X50147Y22106D01*
X50106Y22206D01*
X50041Y22291D01*
X49956Y22356D01*
X49856Y22397D01*
X49750Y22411D01*
X49644Y22397D01*
X49545Y22356D01*
X49459Y22291D01*
X49450Y22278D01*
X48221D01*
X48216Y22291D01*
X48143Y22386D01*
X48049Y22458D01*
X47939Y22504D01*
X47820Y22520D01*
D02*
G37*
G36*
X46770Y22013D02*
X46428D01*
X46435Y21960D01*
X46475Y21864D01*
X46539Y21781D01*
X46621Y21718D01*
X46717Y21678D01*
X46770Y21671D01*
Y22013D01*
D02*
G37*
G36*
X57482Y20214D02*
X57137D01*
Y19869D01*
X57482D01*
Y20214D01*
D02*
G37*
G36*
X46770Y20455D02*
X46717Y20448D01*
X46621Y20408D01*
X46539Y20345D01*
X46475Y20262D01*
X46435Y20166D01*
X46428Y20113D01*
X46770D01*
Y20455D01*
D02*
G37*
G36*
X47820Y20520D02*
X47702Y20504D01*
X47592Y20458D01*
X47498Y20386D01*
X47425Y20291D01*
X47379Y20181D01*
X47364Y20063D01*
X47379Y19945D01*
X47425Y19835D01*
X47498Y19740D01*
X47592Y19668D01*
X47702Y19622D01*
X47820Y19606D01*
X47939Y19622D01*
X48049Y19668D01*
X48143Y19740D01*
X48206Y19822D01*
X48800D01*
X48809Y19809D01*
X48895Y19744D01*
X48994Y19703D01*
X49100Y19689D01*
X49206Y19703D01*
X49306Y19744D01*
X49391Y19809D01*
X49456Y19894D01*
X49497Y19994D01*
X49511Y20100D01*
X49497Y20206D01*
X49456Y20306D01*
X49391Y20391D01*
X49306Y20456D01*
X49206Y20497D01*
X49100Y20511D01*
X48994Y20497D01*
X48895Y20456D01*
X48809Y20391D01*
X48800Y20378D01*
X48149D01*
X48143Y20386D01*
X48049Y20458D01*
X47939Y20504D01*
X47820Y20520D01*
D02*
G37*
G36*
X57037Y20214D02*
X56691D01*
Y19869D01*
X57037D01*
Y20214D01*
D02*
G37*
G36*
X47820Y21520D02*
X47702Y21504D01*
X47592Y21458D01*
X47498Y21386D01*
X47425Y21291D01*
X47379Y21181D01*
X47364Y21063D01*
X47379Y20945D01*
X47425Y20835D01*
X47498Y20740D01*
X47592Y20668D01*
X47702Y20622D01*
X47820Y20606D01*
X47939Y20622D01*
X48049Y20668D01*
X48120Y20722D01*
X49050D01*
X49059Y20709D01*
X49145Y20644D01*
X49244Y20603D01*
X49350Y20589D01*
X49456Y20603D01*
X49556Y20644D01*
X49641Y20709D01*
X49706Y20794D01*
X49747Y20894D01*
X49761Y21000D01*
X49747Y21106D01*
X49706Y21205D01*
X49641Y21291D01*
X49556Y21356D01*
X49456Y21397D01*
X49350Y21411D01*
X49244Y21397D01*
X49145Y21356D01*
X49059Y21291D01*
X49050Y21278D01*
X48221D01*
X48216Y21291D01*
X48143Y21386D01*
X48049Y21458D01*
X47939Y21504D01*
X47820Y21520D01*
D02*
G37*
G36*
X46770Y21013D02*
X46428D01*
X46435Y20960D01*
X46475Y20864D01*
X46539Y20781D01*
X46621Y20718D01*
X46717Y20678D01*
X46770Y20671D01*
Y21013D01*
D02*
G37*
G36*
X46870Y20455D02*
Y20113D01*
X47213D01*
X47206Y20166D01*
X47166Y20262D01*
X47102Y20345D01*
X47020Y20408D01*
X46924Y20448D01*
X46870Y20455D01*
D02*
G37*
G36*
X57087Y21276D02*
X56968Y21260D01*
X56858Y21214D01*
X56764Y21142D01*
X56691Y21047D01*
X56646Y20937D01*
X56630Y20819D01*
X56646Y20701D01*
X56691Y20591D01*
X56764Y20496D01*
X56858Y20423D01*
X56968Y20378D01*
X57087Y20362D01*
X57205Y20378D01*
X57315Y20423D01*
X57410Y20496D01*
X57482Y20591D01*
X57528Y20701D01*
X57543Y20819D01*
X57528Y20937D01*
X57482Y21047D01*
X57410Y21142D01*
X57315Y21214D01*
X57205Y21260D01*
X57087Y21276D01*
D02*
G37*
G36*
X55707Y37218D02*
X55365D01*
Y36876D01*
X55418Y36883D01*
X55514Y36922D01*
X55597Y36986D01*
X55660Y37068D01*
X55700Y37165D01*
X55707Y37218D01*
D02*
G37*
G36*
X55265D02*
X54923D01*
X54930Y37165D01*
X54970Y37068D01*
X55033Y36986D01*
X55116Y36922D01*
X55212Y36883D01*
X55265Y36876D01*
Y37218D01*
D02*
G37*
G36*
X53502Y37218D02*
X53160D01*
Y36876D01*
X53213Y36883D01*
X53310Y36922D01*
X53392Y36986D01*
X53456Y37068D01*
X53495Y37165D01*
X53502Y37218D01*
D02*
G37*
G36*
X53060D02*
X52718D01*
X52725Y37165D01*
X52765Y37068D01*
X52828Y36986D01*
X52911Y36922D01*
X53007Y36883D01*
X53060Y36876D01*
Y37218D01*
D02*
G37*
G36*
X55265Y37660D02*
X55212Y37653D01*
X55116Y37613D01*
X55033Y37550D01*
X54970Y37467D01*
X54930Y37371D01*
X54923Y37318D01*
X55265D01*
Y37660D01*
D02*
G37*
G36*
X51349Y37236D02*
Y36940D01*
X51646D01*
X51640Y36981D01*
X51605Y37066D01*
X51549Y37139D01*
X51476Y37195D01*
X51391Y37231D01*
X51349Y37236D01*
D02*
G37*
G36*
X51249D02*
X51208Y37231D01*
X51123Y37195D01*
X51050Y37139D01*
X50993Y37066D01*
X50958Y36981D01*
X50953Y36940D01*
X51249D01*
Y37236D01*
D02*
G37*
G36*
X51646Y36840D02*
X51349D01*
Y36543D01*
X51391Y36549D01*
X51476Y36584D01*
X51549Y36640D01*
X51605Y36713D01*
X51640Y36798D01*
X51646Y36840D01*
D02*
G37*
G36*
X53110Y35724D02*
X52992Y35709D01*
X52882Y35663D01*
X52787Y35591D01*
X52715Y35496D01*
X52669Y35386D01*
X52654Y35268D01*
X52669Y35150D01*
X52715Y35039D01*
X52787Y34945D01*
X52882Y34872D01*
X52992Y34827D01*
X53110Y34811D01*
X53228Y34827D01*
X53339Y34872D01*
X53433Y34945D01*
X53506Y35039D01*
X53551Y35150D01*
X53567Y35268D01*
X53551Y35386D01*
X53506Y35496D01*
X53433Y35591D01*
X53339Y35663D01*
X53228Y35709D01*
X53110Y35724D01*
D02*
G37*
G36*
X55315Y34724D02*
X55197Y34709D01*
X55087Y34663D01*
X54992Y34591D01*
X54919Y34496D01*
X54874Y34386D01*
X54858Y34268D01*
X54874Y34150D01*
X54919Y34039D01*
X54992Y33945D01*
X55087Y33872D01*
X55197Y33827D01*
X55315Y33811D01*
X55433Y33827D01*
X55543Y33872D01*
X55638Y33945D01*
X55710Y34039D01*
X55756Y34150D01*
X55772Y34268D01*
X55756Y34386D01*
X55710Y34496D01*
X55638Y34591D01*
X55543Y34663D01*
X55433Y34709D01*
X55315Y34724D01*
D02*
G37*
G36*
X53110D02*
X52992Y34709D01*
X52882Y34663D01*
X52787Y34591D01*
X52715Y34496D01*
X52669Y34386D01*
X52654Y34268D01*
X52669Y34150D01*
X52715Y34039D01*
X52787Y33945D01*
X52882Y33872D01*
X52992Y33827D01*
X53110Y33811D01*
X53228Y33827D01*
X53339Y33872D01*
X53433Y33945D01*
X53506Y34039D01*
X53551Y34150D01*
X53567Y34268D01*
X53551Y34386D01*
X53506Y34496D01*
X53433Y34591D01*
X53339Y34663D01*
X53228Y34709D01*
X53110Y34724D01*
D02*
G37*
G36*
X55315Y35724D02*
X55197Y35709D01*
X55087Y35663D01*
X54992Y35591D01*
X54919Y35496D01*
X54874Y35386D01*
X54858Y35268D01*
X54874Y35150D01*
X54919Y35039D01*
X54992Y34945D01*
X55087Y34872D01*
X55197Y34827D01*
X55315Y34811D01*
X55433Y34827D01*
X55543Y34872D01*
X55638Y34945D01*
X55710Y35039D01*
X55756Y35150D01*
X55772Y35268D01*
X55756Y35386D01*
X55710Y35496D01*
X55638Y35591D01*
X55543Y35663D01*
X55433Y35709D01*
X55315Y35724D01*
D02*
G37*
G36*
X51249Y36840D02*
X50953D01*
X50958Y36798D01*
X50993Y36713D01*
X51050Y36640D01*
X51123Y36584D01*
X51208Y36549D01*
X51249Y36543D01*
Y36840D01*
D02*
G37*
G36*
X55315Y36724D02*
X55197Y36709D01*
X55087Y36663D01*
X54992Y36591D01*
X54919Y36496D01*
X54874Y36386D01*
X54858Y36268D01*
X54874Y36150D01*
X54919Y36039D01*
X54992Y35945D01*
X55087Y35872D01*
X55197Y35827D01*
X55315Y35811D01*
X55433Y35827D01*
X55543Y35872D01*
X55638Y35945D01*
X55710Y36039D01*
X55756Y36150D01*
X55772Y36268D01*
X55756Y36386D01*
X55710Y36496D01*
X55638Y36591D01*
X55543Y36663D01*
X55433Y36709D01*
X55315Y36724D01*
D02*
G37*
G36*
X53110D02*
X52992Y36709D01*
X52882Y36663D01*
X52787Y36591D01*
X52715Y36496D01*
X52669Y36386D01*
X52654Y36268D01*
X52669Y36150D01*
X52715Y36039D01*
X52787Y35945D01*
X52882Y35872D01*
X52992Y35827D01*
X53110Y35811D01*
X53228Y35827D01*
X53339Y35872D01*
X53433Y35945D01*
X53506Y36039D01*
X53551Y36150D01*
X53567Y36268D01*
X53551Y36386D01*
X53506Y36496D01*
X53433Y36591D01*
X53339Y36663D01*
X53228Y36709D01*
X53110Y36724D01*
D02*
G37*
G36*
X55365Y37660D02*
Y37318D01*
X55707D01*
X55700Y37371D01*
X55660Y37467D01*
X55597Y37550D01*
X55514Y37613D01*
X55418Y37653D01*
X55365Y37660D01*
D02*
G37*
G36*
X57087Y47724D02*
X56968Y47709D01*
X56858Y47663D01*
X56764Y47591D01*
X56691Y47496D01*
X56646Y47386D01*
X56630Y47268D01*
X56646Y47150D01*
X56691Y47039D01*
X56764Y46945D01*
X56858Y46872D01*
X56968Y46827D01*
X57087Y46811D01*
X57205Y46827D01*
X57315Y46872D01*
X57410Y46945D01*
X57482Y47039D01*
X57528Y47150D01*
X57543Y47268D01*
X57528Y47386D01*
X57482Y47496D01*
X57410Y47591D01*
X57315Y47663D01*
X57205Y47709D01*
X57087Y47724D01*
D02*
G37*
G36*
Y46724D02*
X56968Y46709D01*
X56858Y46663D01*
X56764Y46591D01*
X56691Y46496D01*
X56646Y46386D01*
X56630Y46268D01*
X56646Y46150D01*
X56691Y46039D01*
X56764Y45945D01*
X56858Y45872D01*
X56968Y45827D01*
X57087Y45811D01*
X57205Y45827D01*
X57315Y45872D01*
X57410Y45945D01*
X57482Y46039D01*
X57528Y46150D01*
X57543Y46268D01*
X57528Y46386D01*
X57482Y46496D01*
X57410Y46591D01*
X57315Y46663D01*
X57205Y46709D01*
X57087Y46724D01*
D02*
G37*
G36*
Y45724D02*
X56968Y45709D01*
X56858Y45663D01*
X56764Y45591D01*
X56691Y45496D01*
X56646Y45386D01*
X56630Y45268D01*
X56646Y45150D01*
X56691Y45039D01*
X56764Y44945D01*
X56858Y44872D01*
X56968Y44827D01*
X57087Y44811D01*
X57205Y44827D01*
X57315Y44872D01*
X57410Y44945D01*
X57482Y45039D01*
X57528Y45150D01*
X57543Y45268D01*
X57528Y45386D01*
X57482Y45496D01*
X57410Y45591D01*
X57315Y45663D01*
X57205Y45709D01*
X57087Y45724D01*
D02*
G37*
G36*
X57037Y48218D02*
X56695D01*
X56702Y48165D01*
X56741Y48068D01*
X56805Y47986D01*
X56887Y47922D01*
X56983Y47883D01*
X57037Y47876D01*
Y48218D01*
D02*
G37*
G36*
X57137Y48660D02*
Y48318D01*
X57479D01*
X57472Y48371D01*
X57432Y48467D01*
X57369Y48550D01*
X57286Y48613D01*
X57190Y48653D01*
X57137Y48660D01*
D02*
G37*
G36*
X57037D02*
X56983Y48653D01*
X56887Y48613D01*
X56805Y48550D01*
X56741Y48467D01*
X56702Y48371D01*
X56695Y48318D01*
X57037D01*
Y48660D01*
D02*
G37*
G36*
X57479Y48218D02*
X57137D01*
Y47876D01*
X57190Y47883D01*
X57286Y47922D01*
X57369Y47986D01*
X57432Y48068D01*
X57472Y48165D01*
X57479Y48218D01*
D02*
G37*
G36*
X57087Y44724D02*
X56968Y44709D01*
X56858Y44663D01*
X56764Y44591D01*
X56691Y44496D01*
X56646Y44386D01*
X56630Y44268D01*
X56646Y44150D01*
X56691Y44039D01*
X56764Y43945D01*
X56858Y43872D01*
X56968Y43827D01*
X57087Y43811D01*
X57205Y43827D01*
X57315Y43872D01*
X57410Y43945D01*
X57482Y44039D01*
X57528Y44150D01*
X57543Y44268D01*
X57528Y44386D01*
X57482Y44496D01*
X57410Y44591D01*
X57315Y44663D01*
X57205Y44709D01*
X57087Y44724D01*
D02*
G37*
G36*
X53110Y38724D02*
X52992Y38709D01*
X52882Y38663D01*
X52787Y38591D01*
X52715Y38496D01*
X52669Y38386D01*
X52654Y38268D01*
X52669Y38150D01*
X52715Y38039D01*
X52787Y37945D01*
X52882Y37872D01*
X52992Y37827D01*
X53110Y37811D01*
X53228Y37827D01*
X53339Y37872D01*
X53433Y37945D01*
X53506Y38039D01*
X53551Y38150D01*
X53567Y38268D01*
X53551Y38386D01*
X53506Y38496D01*
X53433Y38591D01*
X53339Y38663D01*
X53228Y38709D01*
X53110Y38724D01*
D02*
G37*
G36*
X53160Y37660D02*
Y37318D01*
X53502D01*
X53495Y37371D01*
X53456Y37467D01*
X53392Y37550D01*
X53310Y37613D01*
X53213Y37653D01*
X53160Y37660D01*
D02*
G37*
G36*
X53060D02*
X53007Y37653D01*
X52911Y37613D01*
X52828Y37550D01*
X52765Y37467D01*
X52725Y37371D01*
X52718Y37318D01*
X53060D01*
Y37660D01*
D02*
G37*
G36*
X55768Y38720D02*
X54862D01*
Y37815D01*
X55768D01*
Y38720D01*
D02*
G37*
G36*
X57087Y43724D02*
X56968Y43709D01*
X56858Y43663D01*
X56764Y43591D01*
X56691Y43496D01*
X56646Y43386D01*
X56630Y43268D01*
X56646Y43150D01*
X56691Y43039D01*
X56764Y42945D01*
X56858Y42872D01*
X56968Y42827D01*
X57087Y42811D01*
X57205Y42827D01*
X57315Y42872D01*
X57410Y42945D01*
X57482Y43039D01*
X57528Y43150D01*
X57543Y43268D01*
X57528Y43386D01*
X57482Y43496D01*
X57410Y43591D01*
X57315Y43663D01*
X57205Y43709D01*
X57087Y43724D01*
D02*
G37*
G36*
Y42724D02*
X56968Y42709D01*
X56858Y42663D01*
X56764Y42591D01*
X56691Y42496D01*
X56646Y42386D01*
X56630Y42268D01*
X56646Y42150D01*
X56691Y42039D01*
X56764Y41945D01*
X56858Y41872D01*
X56968Y41827D01*
X57087Y41811D01*
X57205Y41827D01*
X57315Y41872D01*
X57410Y41945D01*
X57482Y42039D01*
X57528Y42150D01*
X57543Y42268D01*
X57528Y42386D01*
X57482Y42496D01*
X57410Y42591D01*
X57315Y42663D01*
X57205Y42709D01*
X57087Y42724D01*
D02*
G37*
G36*
X57539Y41720D02*
X56634D01*
Y40815D01*
X57539D01*
Y41720D01*
D02*
G37*
G36*
X51310Y33378D02*
Y33082D01*
X51606D01*
X51601Y33123D01*
X51566Y33208D01*
X51509Y33281D01*
X51436Y33337D01*
X51351Y33372D01*
X51310Y33378D01*
D02*
G37*
G36*
X46770Y29013D02*
X46428D01*
X46435Y28960D01*
X46475Y28864D01*
X46539Y28781D01*
X46621Y28718D01*
X46717Y28678D01*
X46770Y28671D01*
Y29013D01*
D02*
G37*
G36*
X47820Y29520D02*
X47702Y29504D01*
X47592Y29458D01*
X47498Y29386D01*
X47425Y29291D01*
X47379Y29181D01*
X47364Y29063D01*
X47379Y28945D01*
X47425Y28835D01*
X47498Y28740D01*
X47592Y28668D01*
X47702Y28622D01*
X47820Y28606D01*
X47939Y28622D01*
X48049Y28668D01*
X48143Y28740D01*
X48168Y28772D01*
X50250D01*
X50259Y28759D01*
X50345Y28694D01*
X50444Y28653D01*
X50550Y28639D01*
X50656Y28653D01*
X50756Y28694D01*
X50841Y28759D01*
X50906Y28844D01*
X50947Y28944D01*
X50961Y29050D01*
X50947Y29156D01*
X50906Y29255D01*
X50841Y29341D01*
X50756Y29406D01*
X50656Y29447D01*
X50550Y29461D01*
X50444Y29447D01*
X50345Y29406D01*
X50259Y29341D01*
X50250Y29328D01*
X48188D01*
X48143Y29386D01*
X48049Y29458D01*
X47939Y29504D01*
X47820Y29520D01*
D02*
G37*
G36*
X46870Y28455D02*
Y28113D01*
X47213D01*
X47206Y28166D01*
X47166Y28262D01*
X47102Y28345D01*
X47020Y28408D01*
X46924Y28448D01*
X46870Y28455D01*
D02*
G37*
G36*
X47213Y29013D02*
X46870D01*
Y28671D01*
X46924Y28678D01*
X47020Y28718D01*
X47102Y28781D01*
X47166Y28864D01*
X47206Y28960D01*
X47213Y29013D01*
D02*
G37*
G36*
X48273Y30516D02*
X47368D01*
Y29610D01*
X48273D01*
Y29785D01*
X50590D01*
X50609Y29759D01*
X50694Y29694D01*
X50794Y29653D01*
X50900Y29639D01*
X51006Y29653D01*
X51105Y29694D01*
X51191Y29759D01*
X51256Y29845D01*
X51297Y29944D01*
X51311Y30050D01*
X51297Y30156D01*
X51256Y30255D01*
X51191Y30341D01*
X51105Y30406D01*
X51006Y30447D01*
X50900Y30461D01*
X50794Y30447D01*
X50694Y30406D01*
X50610Y30341D01*
X48273D01*
Y30516D01*
D02*
G37*
G36*
X46870Y29455D02*
Y29113D01*
X47213D01*
X47206Y29166D01*
X47166Y29262D01*
X47102Y29345D01*
X47020Y29408D01*
X46924Y29448D01*
X46870Y29455D01*
D02*
G37*
G36*
X46770Y29455D02*
X46717Y29448D01*
X46621Y29408D01*
X46539Y29345D01*
X46475Y29262D01*
X46435Y29166D01*
X46428Y29113D01*
X46770D01*
Y29455D01*
D02*
G37*
G36*
Y28455D02*
X46717Y28448D01*
X46621Y28408D01*
X46539Y28345D01*
X46475Y28262D01*
X46435Y28166D01*
X46428Y28113D01*
X46770D01*
Y28455D01*
D02*
G37*
G36*
Y27455D02*
X46717Y27448D01*
X46621Y27408D01*
X46539Y27345D01*
X46475Y27262D01*
X46435Y27166D01*
X46428Y27113D01*
X46770D01*
Y27455D01*
D02*
G37*
G36*
X47213Y27013D02*
X46870D01*
Y26671D01*
X46924Y26678D01*
X47020Y26718D01*
X47102Y26781D01*
X47166Y26864D01*
X47206Y26960D01*
X47213Y27013D01*
D02*
G37*
G36*
X46770D02*
X46428D01*
X46435Y26960D01*
X46475Y26864D01*
X46539Y26781D01*
X46621Y26718D01*
X46717Y26678D01*
X46770Y26671D01*
Y27013D01*
D02*
G37*
G36*
X46870Y27455D02*
Y27113D01*
X47213D01*
X47206Y27166D01*
X47166Y27262D01*
X47102Y27345D01*
X47020Y27408D01*
X46924Y27448D01*
X46870Y27455D01*
D02*
G37*
G36*
X47213Y28013D02*
X46870D01*
Y27671D01*
X46924Y27678D01*
X47020Y27718D01*
X47102Y27781D01*
X47166Y27864D01*
X47206Y27960D01*
X47213Y28013D01*
D02*
G37*
G36*
X46770D02*
X46428D01*
X46435Y27960D01*
X46475Y27864D01*
X46539Y27781D01*
X46621Y27718D01*
X46717Y27678D01*
X46770Y27671D01*
Y28013D01*
D02*
G37*
G36*
X47820Y28520D02*
X47702Y28504D01*
X47592Y28458D01*
X47498Y28386D01*
X47425Y28291D01*
X47379Y28181D01*
X47364Y28063D01*
X47379Y27945D01*
X47425Y27835D01*
X47498Y27740D01*
X47592Y27668D01*
X47702Y27622D01*
X47820Y27606D01*
X47939Y27622D01*
X48049Y27668D01*
X48055Y27672D01*
X49900D01*
X49909Y27659D01*
X49995Y27594D01*
X50094Y27553D01*
X50200Y27539D01*
X50306Y27553D01*
X50406Y27594D01*
X50491Y27659D01*
X50556Y27745D01*
X50597Y27844D01*
X50611Y27950D01*
X50597Y28056D01*
X50556Y28156D01*
X50491Y28241D01*
X50406Y28306D01*
X50306Y28347D01*
X50200Y28361D01*
X50094Y28347D01*
X49995Y28306D01*
X49909Y28241D01*
X49900Y28228D01*
X48242D01*
X48216Y28291D01*
X48143Y28386D01*
X48049Y28458D01*
X47939Y28504D01*
X47820Y28520D01*
D02*
G37*
G36*
X46770Y30013D02*
X46425D01*
Y29668D01*
X46770D01*
Y30013D01*
D02*
G37*
G36*
X51210Y32982D02*
X50913D01*
X50919Y32940D01*
X50954Y32855D01*
X51010Y32782D01*
X51083Y32726D01*
X51168Y32690D01*
X51210Y32685D01*
Y32982D01*
D02*
G37*
G36*
X53506Y32663D02*
X53160D01*
Y32318D01*
X53506D01*
Y32663D01*
D02*
G37*
G36*
X53060D02*
X52715D01*
Y32318D01*
X53060D01*
Y32663D01*
D02*
G37*
G36*
X51606Y32982D02*
X51310D01*
Y32685D01*
X51351Y32690D01*
X51436Y32726D01*
X51509Y32782D01*
X51566Y32855D01*
X51601Y32940D01*
X51606Y32982D01*
D02*
G37*
G36*
X51210Y33378D02*
X51168Y33372D01*
X51083Y33337D01*
X51010Y33281D01*
X50954Y33208D01*
X50919Y33123D01*
X50913Y33082D01*
X51210D01*
Y33378D01*
D02*
G37*
G36*
X55315Y33724D02*
X55197Y33709D01*
X55087Y33663D01*
X54992Y33591D01*
X54919Y33496D01*
X54874Y33386D01*
X54858Y33268D01*
X54874Y33150D01*
X54919Y33039D01*
X54992Y32945D01*
X55087Y32872D01*
X55197Y32827D01*
X55315Y32811D01*
X55433Y32827D01*
X55543Y32872D01*
X55638Y32945D01*
X55710Y33039D01*
X55756Y33150D01*
X55772Y33268D01*
X55756Y33386D01*
X55710Y33496D01*
X55638Y33591D01*
X55543Y33663D01*
X55433Y33709D01*
X55315Y33724D01*
D02*
G37*
G36*
X53110D02*
X52992Y33709D01*
X52882Y33663D01*
X52787Y33591D01*
X52715Y33496D01*
X52669Y33386D01*
X52654Y33268D01*
X52669Y33150D01*
X52715Y33039D01*
X52787Y32945D01*
X52882Y32872D01*
X52992Y32827D01*
X53110Y32811D01*
X53228Y32827D01*
X53339Y32872D01*
X53433Y32945D01*
X53506Y33039D01*
X53551Y33150D01*
X53567Y33268D01*
X53551Y33386D01*
X53506Y33496D01*
X53433Y33591D01*
X53339Y33663D01*
X53228Y33709D01*
X53110Y33724D01*
D02*
G37*
G36*
X53506Y32218D02*
X53160D01*
Y31872D01*
X53506D01*
Y32218D01*
D02*
G37*
G36*
X45916Y30386D02*
Y30089D01*
X46213D01*
X46207Y30131D01*
X46172Y30216D01*
X46116Y30289D01*
X46043Y30345D01*
X45958Y30380D01*
X45916Y30386D01*
D02*
G37*
G36*
X46213Y29989D02*
X45916D01*
Y29693D01*
X45958Y29698D01*
X46043Y29734D01*
X46116Y29790D01*
X46172Y29863D01*
X46207Y29948D01*
X46213Y29989D01*
D02*
G37*
G36*
X47216Y30013D02*
X46870D01*
Y29668D01*
X47216D01*
Y30013D01*
D02*
G37*
G36*
X46770Y30458D02*
X46425D01*
Y30113D01*
X46770D01*
Y30458D01*
D02*
G37*
G36*
X53060Y32218D02*
X52715D01*
Y31872D01*
X53060D01*
Y32218D01*
D02*
G37*
G36*
X55315Y32724D02*
X55197Y32709D01*
X55087Y32663D01*
X54992Y32591D01*
X54919Y32496D01*
X54874Y32386D01*
X54858Y32268D01*
X54874Y32150D01*
X54919Y32039D01*
X54992Y31945D01*
X55087Y31872D01*
X55197Y31827D01*
X55315Y31811D01*
X55433Y31827D01*
X55543Y31872D01*
X55638Y31945D01*
X55710Y32039D01*
X55756Y32150D01*
X55772Y32268D01*
X55756Y32386D01*
X55710Y32496D01*
X55638Y32591D01*
X55543Y32663D01*
X55433Y32709D01*
X55315Y32724D01*
D02*
G37*
G36*
X47216Y30458D02*
X46870D01*
Y30113D01*
X47216D01*
Y30458D01*
D02*
G37*
%LPD*%
D10*
X47983Y22000D02*
X49750D01*
X47933Y22050D02*
X47983Y22000D01*
X47883D02*
X47933Y22050D01*
X47883Y21000D02*
X49350D01*
X47820Y27063D02*
X47933Y26950D01*
X49400D01*
X47820Y28063D02*
X47933Y27950D01*
X50200D01*
X47820Y29063D02*
X47833Y29050D01*
X50550D01*
X47820Y30063D02*
X50913D01*
X50900Y30050D02*
X50913Y30063D01*
X47820Y21063D02*
X47883Y21000D01*
X47820Y22063D02*
X47883Y22000D01*
X47820Y23063D02*
X48207Y23450D01*
X49950D01*
X47820Y24063D02*
X47907Y24150D01*
X49850D01*
X47820Y25063D02*
X47833Y25050D01*
X49850D01*
X47820Y26063D02*
X48033Y25850D01*
X49850D01*
X47820Y20063D02*
X47857Y20100D01*
X49100D01*
X49137Y19063D02*
X49150Y19050D01*
X47820Y19063D02*
X49137D01*
X48563Y18063D02*
X48600Y18100D01*
X47820Y18063D02*
X48563D01*
X46797Y30039D02*
X46820Y30063D01*
X45866Y18071D02*
X45874Y18063D01*
X46789Y23031D02*
X46820Y23063D01*
X46813Y24055D02*
X46820Y24063D01*
X46797Y25039D02*
X46820Y25063D01*
X46820Y26063D02*
X46820Y26063D01*
X46805Y27047D02*
X46820Y27063D01*
X46813Y28071D02*
X46820Y28063D01*
X46813Y29055D02*
X46820Y29063D01*
X47820Y24063D02*
X47853Y24030D01*
X47820Y18063D02*
X47852Y18031D01*
D11*
X46820Y18063D02*
D03*
Y19063D02*
D03*
Y20063D02*
D03*
Y21063D02*
D03*
Y22063D02*
D03*
Y23063D02*
D03*
Y24063D02*
D03*
Y25063D02*
D03*
Y26063D02*
D03*
Y27063D02*
D03*
Y28063D02*
D03*
Y29063D02*
D03*
X47820Y18063D02*
D03*
Y19063D02*
D03*
Y20063D02*
D03*
Y21063D02*
D03*
Y22063D02*
D03*
Y23063D02*
D03*
Y24063D02*
D03*
Y25063D02*
D03*
Y26063D02*
D03*
Y27063D02*
D03*
Y28063D02*
D03*
Y29063D02*
D03*
X57087Y20819D02*
D03*
Y21819D02*
D03*
Y22819D02*
D03*
Y23819D02*
D03*
Y24819D02*
D03*
Y25819D02*
D03*
Y26819D02*
D03*
Y42268D02*
D03*
Y43268D02*
D03*
Y44268D02*
D03*
Y45268D02*
D03*
Y46268D02*
D03*
Y47268D02*
D03*
Y48268D02*
D03*
X55315Y37268D02*
D03*
Y36268D02*
D03*
Y35268D02*
D03*
Y34268D02*
D03*
Y33268D02*
D03*
Y32268D02*
D03*
X53110Y33268D02*
D03*
Y34268D02*
D03*
Y35268D02*
D03*
Y36268D02*
D03*
Y37268D02*
D03*
Y38268D02*
D03*
D12*
X46820Y30063D02*
D03*
X47820D02*
D03*
X57087Y19819D02*
D03*
Y41268D02*
D03*
X55315Y38268D02*
D03*
X53110Y32268D02*
D03*
D13*
X51299Y36890D02*
D03*
X51260Y33031D02*
D03*
X55866Y22362D02*
D03*
X49750Y22000D02*
D03*
X49350Y21000D02*
D03*
X50900Y30050D02*
D03*
X50550Y29050D02*
D03*
X50200Y27950D02*
D03*
X49400Y26950D02*
D03*
X49850Y25850D02*
D03*
Y25050D02*
D03*
Y24150D02*
D03*
X49950Y23450D02*
D03*
X49100Y20100D02*
D03*
X49150Y19050D02*
D03*
X48600Y18100D02*
D03*
X45866Y30039D02*
D03*
Y24055D02*
D03*
Y18071D02*
D03*
M02*
