M48
;Layer_Color=9474304
;FILE_FORMAT=2:4
INCH,LZ
;TYPE=PLATED
T1F00S00C0.0280
T2F00S00C0.0354
%
T01
X0486Y0181
X04915Y01905
X0491Y0201
X04935Y021
X04975Y022
X04995Y02345
X04985Y02415
Y02505
Y02585
X0494Y02695
X0502Y02795
X05055Y02905
X0509Y03005
X055866Y022362
X045866Y024055
Y030039
Y018071
X05126Y033031
X051299Y03689
T02
X04782Y018063
Y019063
Y020063
Y021063
Y022063
Y023063
Y024063
Y025063
Y026063
Y027063
Y028063
Y029063
Y030063
X057087Y026819
Y025819
Y024819
Y023819
Y022819
Y021819
Y020819
Y019819
X04682Y020063
Y019063
Y018063
Y021063
Y022063
Y023063
Y024063
Y025063
Y026063
Y027063
Y028063
Y029063
Y030063
X05311Y032268
Y033268
Y034268
Y035268
Y036268
Y037268
Y038268
X055315
Y037268
Y036268
Y035268
Y034268
Y033268
Y032268
X057087Y041268
Y042268
Y043268
Y044268
Y045268
Y046268
Y047268
Y048268
M30
