M48
;Layer_Color=9474304
;FILE_FORMAT=2:5
INCH,LZ
;TYPE=PLATED
T1F00S00C0.03543
%
T01
X0314492Y015513
X0374492
X0414492
X0424492
Y016513
X0414492
Y017513
Y018513
Y019513
Y020513
Y021513
Y022513
Y023513
Y024513
Y025513
Y026513
Y027513
X0424492
Y026513
Y025513
Y024513
Y023513
Y022513
Y021513
Y020513
Y019513
Y018513
Y017513
X0374492
Y016513
Y018513
Y019513
Y020513
Y021513
Y022513
Y023513
Y024513
Y025513
Y026513
Y027513
Y028513
Y029513
X0314492
Y028513
Y027513
Y026513
Y025513
Y024513
Y023513
Y022513
Y021513
Y020513
Y019513
Y018513
Y017513
Y016513
X0287956Y0164421
Y0172295
Y0180169
Y0195918
Y0203792
Y0211666
Y021954
Y0235288
Y0245288
Y0255288
Y0274343
Y0284343
Y0294343
Y015639
M30
